<svg xmlns="http://www.w3.org/2000/svg" width="188" height="38" viewBox="0 0 188 38" role="img" aria-label="E-MAIL ME!">
  <rect width="188" height="38" fill="#0b0b14"/>
  <rect x="3" y="3" width="32" height="32" fill="#C5221F"/>
  <rect x="3" y="3" width="32" height="7" fill="#ffffff" fill-opacity="0.22"/>
  <g transform="translate(9.0,9.0) scale(0.8333)"><path d="M24 5.457v13.909c0 .904-.732 1.636-1.636 1.636h-3.819V11.73L12 16.64l-6.545-4.91v9.273H1.636A1.636 1.636 0 0 1 0 19.366V5.457c0-2.023 2.309-3.178 3.927-1.964L5.455 4.64 12 9.548l6.545-4.91 1.528-1.145C21.69 2.28 24 3.434 24 5.457z" fill="#ffffff"/></g>
  <path d="M0 38 L0 0 L188 0" stroke="#e9e9e9" stroke-width="2.5" fill="none"/>
  <path d="M188 0 L188 38 L0 38" stroke="#33333f" stroke-width="2.5" fill="none"/>
  <text x="44" y="23" font-family="'Courier New',monospace" font-size="12" font-weight="bold" fill="#33ff99" letter-spacing="0.5">E-MAIL ME!</text>
</svg>
