<svg xmlns="http://www.w3.org/2000/svg" width="662" height="498" viewBox="0 0 662 498" role="img" aria-label="tech stack">
<g transform="translate(18,18)">
  <rect width="94" height="20" fill="#000080"/>
  <rect width="94" height="20" fill="none" stroke="#c0c0c0" stroke-width="2"/>
  <text x="11" y="14" font-family="'Courier New',monospace" font-size="11" font-weight="bold" fill="#33ff99">LANGUAGES</text>
</g>
<g transform="translate(18,46)">
  <rect width="96" height="34" fill="#0b0b14"/>
  <rect x="3" y="3" width="30" height="28" fill="#3776AB"/><rect x="3" y="3" width="30" height="6" fill="#ffffff" fill-opacity="0.22"/><g transform="translate(9.0,8.0) scale(0.7500)"><path d="M14.25.18l.9.2.73.26.59.3.45.32.34.34.25.34.16.33.1.3.04.26.02.2-.01.13V8.5l-.05.63-.13.55-.21.46-.26.38-.3.31-.33.25-.35.19-.35.14-.33.1-.3.07-.26.04-.21.02H8.77l-.69.05-.59.14-.5.22-.41.27-.33.32-.27.35-.2.36-.15.37-.1.35-.07.32-.04.27-.02.21v3.06H3.17l-.21-.03-.28-.07-.32-.12-.35-.18-.36-.26-.36-.36-.35-.46-.32-.59-.28-.73-.21-.88-.14-1.05-.05-1.23.06-1.22.16-1.04.24-.87.32-.71.36-.57.4-.44.42-.33.42-.24.4-.16.36-.1.32-.05.24-.01h.16l.06.01h8.16v-.83H6.18l-.01-2.75-.02-.37.05-.34.11-.31.17-.28.25-.26.31-.23.38-.2.44-.18.51-.15.58-.12.64-.1.71-.06.77-.04.84-.02 1.27.05zm-6.3 1.98l-.23.33-.08.41.08.41.23.34.33.22.41.09.41-.09.33-.22.23-.34.08-.41-.08-.41-.23-.33-.33-.22-.41-.09-.41.09zm13.09 3.95l.28.06.32.12.35.18.36.27.36.35.35.47.32.59.28.73.21.88.14 1.04.05 1.23-.06 1.23-.16 1.04-.24.86-.32.71-.36.57-.4.45-.42.33-.42.24-.4.16-.36.09-.32.05-.24.02-.16-.01h-8.22v.82h5.84l.01 2.76.02.36-.05.34-.11.31-.17.29-.25.25-.31.24-.38.2-.44.17-.51.15-.58.13-.64.09-.71.07-.77.04-.84.01-1.27-.04-1.07-.14-.9-.2-.73-.25-.59-.3-.45-.33-.34-.34-.25-.34-.16-.33-.1-.3-.04-.25-.02-.2.01-.13v-5.34l.05-.64.13-.54.21-.46.26-.38.3-.32.33-.24.35-.2.35-.14.33-.1.3-.06.26-.04.21-.02.13-.01h5.84l.69-.05.59-.14.5-.21.41-.28.33-.32.27-.35.2-.36.15-.36.1-.35.07-.32.04-.28.02-.21V6.07h2.09l.14.01zm-6.47 14.25l-.23.33-.08.41.08.41.23.33.33.23.41.08.41-.08.33-.23.23-.33.08-.41-.08-.41-.23-.33-.33-.23-.41-.08-.41.08z" fill="#ffffff"/></g>
  <path d="M0 34 L0 0 L96 0" stroke="#e9e9e9" stroke-width="2" fill="none"/>
  <path d="M96 0 L96 34 L0 34" stroke="#33333f" stroke-width="2" fill="none"/>
  <text x="40" y="20" font-family="'Courier New',monospace" font-size="8" font-weight="bold" fill="#eaeaea" letter-spacing="0.3">PYTHON</text>
</g>
<g transform="translate(124,46)">
  <rect width="96" height="34" fill="#0b0b14"/>
  <rect x="3" y="3" width="30" height="28" fill="#9B6BE3"/><rect x="3" y="3" width="30" height="6" fill="#ffffff" fill-opacity="0.22"/><g transform="translate(9.0,8.0) scale(0.7500)"><path d="M24 8.77h-2.468v7.565h-1.425V8.77h-2.462V7.53H24zm-6.852 7.565h-4.821V7.53h4.63v1.24h-3.205v2.494h2.953v1.234h-2.953v2.604h3.396zm-6.708 0H8.882L4.78 9.863a2.896 2.896 0 0 1-.258-.51h-.036c.032.189.048.592.048 1.21v5.772H3.157V7.53h1.659l3.965 6.32c.167.261.275.442.323.54h.024c-.04-.233-.06-.629-.06-1.185V7.529h1.372zm-8.703-.693a.868.829 0 0 1-.869.829.868.829 0 0 1-.868-.83.868.829 0 0 1 .868-.828.868.829 0 0 1 .869.829Z" fill="#ffffff"/></g>
  <path d="M0 34 L0 0 L96 0" stroke="#e9e9e9" stroke-width="2" fill="none"/>
  <path d="M96 0 L96 34 L0 34" stroke="#33333f" stroke-width="2" fill="none"/>
  <text x="40" y="20" font-family="'Courier New',monospace" font-size="8" font-weight="bold" fill="#eaeaea" letter-spacing="0.3">C#</text>
</g>
<g transform="translate(230,46)">
  <rect width="96" height="34" fill="#0b0b14"/>
  <rect x="3" y="3" width="30" height="28" fill="#3178C6"/><rect x="3" y="3" width="30" height="6" fill="#ffffff" fill-opacity="0.22"/><g transform="translate(9.0,8.0) scale(0.7500)"><path d="M1.125 0C.502 0 0 .502 0 1.125v21.75C0 23.498.502 24 1.125 24h21.75c.623 0 1.125-.502 1.125-1.125V1.125C24 .502 23.498 0 22.875 0zm17.363 9.75c.612 0 1.154.037 1.627.111a6.38 6.38 0 0 1 1.306.34v2.458a3.95 3.95 0 0 0-.643-.361 5.093 5.093 0 0 0-.717-.26 5.453 5.453 0 0 0-1.426-.2c-.3 0-.573.028-.819.086a2.1 2.1 0 0 0-.623.242c-.17.104-.3.229-.393.374a.888.888 0 0 0-.14.49c0 .196.053.373.156.529.104.156.252.304.443.444s.423.276.696.41c.273.135.582.274.926.416.47.197.892.407 1.266.628.374.222.695.473.963.753.268.279.472.598.614.957.142.359.214.776.214 1.253 0 .657-.125 1.21-.373 1.656a3.033 3.033 0 0 1-1.012 1.085 4.38 4.38 0 0 1-1.487.596c-.566.12-1.163.18-1.79.18a9.916 9.916 0 0 1-1.84-.164 5.544 5.544 0 0 1-1.512-.493v-2.63a5.033 5.033 0 0 0 3.237 1.2c.333 0 .624-.03.872-.09.249-.06.456-.144.623-.25.166-.108.29-.234.373-.38a1.023 1.023 0 0 0-.074-1.089 2.12 2.12 0 0 0-.537-.5 5.597 5.597 0 0 0-.807-.444 27.72 27.72 0 0 0-1.007-.436c-.918-.383-1.602-.852-2.053-1.405-.45-.553-.676-1.222-.676-2.005 0-.614.123-1.141.369-1.582.246-.441.58-.804 1.004-1.089a4.494 4.494 0 0 1 1.47-.629 7.536 7.536 0 0 1 1.77-.201zm-15.113.188h9.563v2.166H9.506v9.646H6.789v-9.646H3.375z" fill="#ffffff"/></g>
  <path d="M0 34 L0 0 L96 0" stroke="#e9e9e9" stroke-width="2" fill="none"/>
  <path d="M96 0 L96 34 L0 34" stroke="#33333f" stroke-width="2" fill="none"/>
  <text x="40" y="20" font-family="'Courier New',monospace" font-size="8" font-weight="bold" fill="#eaeaea" letter-spacing="0.3">TYPESCRIPT</text>
</g>
<g transform="translate(336,46)">
  <rect width="96" height="34" fill="#0b0b14"/>
  <rect x="3" y="3" width="30" height="28" fill="#E8C500"/><rect x="3" y="3" width="30" height="6" fill="#ffffff" fill-opacity="0.22"/><g transform="translate(9.0,8.0) scale(0.7500)"><path d="M0 0h24v24H0V0zm22.034 18.276c-.175-1.095-.888-2.015-3.003-2.873-.736-.345-1.554-.585-1.797-1.14-.091-.33-.105-.51-.046-.705.15-.646.915-.84 1.515-.66.39.12.75.42.976.9 1.034-.676 1.034-.676 1.755-1.125-.27-.42-.404-.601-.586-.78-.63-.705-1.469-1.065-2.834-1.034l-.705.089c-.676.165-1.32.525-1.71 1.005-1.14 1.291-.811 3.541.569 4.471 1.365 1.02 3.361 1.244 3.616 2.205.24 1.17-.87 1.545-1.966 1.41-.811-.18-1.26-.586-1.755-1.336l-1.83 1.051c.21.48.45.689.81 1.109 1.74 1.756 6.09 1.666 6.871-1.004.029-.09.24-.705.074-1.65l.046.067zm-8.983-7.245h-2.248c0 1.938-.009 3.864-.009 5.805 0 1.232.063 2.363-.138 2.711-.33.689-1.18.601-1.566.48-.396-.196-.597-.466-.83-.855-.063-.105-.11-.196-.127-.196l-1.825 1.125c.305.63.75 1.172 1.324 1.517.855.51 2.004.675 3.207.405.783-.226 1.458-.691 1.811-1.411.51-.93.402-2.07.397-3.346.012-2.054 0-4.109 0-6.179l.004-.056z" fill="#111111"/></g>
  <path d="M0 34 L0 0 L96 0" stroke="#e9e9e9" stroke-width="2" fill="none"/>
  <path d="M96 0 L96 34 L0 34" stroke="#33333f" stroke-width="2" fill="none"/>
  <text x="40" y="20" font-family="'Courier New',monospace" font-size="8" font-weight="bold" fill="#eaeaea" letter-spacing="0.3">JAVASCRIPT</text>
</g>
<g transform="translate(442,46)">
  <rect width="96" height="34" fill="#0b0b14"/>
  <rect x="3" y="3" width="30" height="28" fill="#D2691E"/><rect x="3" y="3" width="30" height="6" fill="#ffffff" fill-opacity="0.22"/><g transform="translate(9.0,8.0) scale(0.7500)"><path d="M23.8346 11.7033l-1.0073-.6236a13.7268 13.7268 0 00-.0283-.2936l.8656-.8069a.3483.3483 0 00-.1154-.578l-1.1066-.414a8.4958 8.4958 0 00-.087-.2856l.6904-.9587a.3462.3462 0 00-.2257-.5446l-1.1663-.1894a9.3574 9.3574 0 00-.1407-.2622l.49-1.0761a.3437.3437 0 00-.0274-.3361.3486.3486 0 00-.3006-.154l-1.1845.0416a6.7444 6.7444 0 00-.1873-.2268l.2723-1.153a.3472.3472 0 00-.417-.4172l-1.1532.2724a14.0183 14.0183 0 00-.2278-.1873l.0415-1.1845a.3442.3442 0 00-.49-.328l-1.076.491c-.0872-.0476-.1742-.0952-.2623-.1407l-.1903-1.1673A.3483.3483 0 0016.256.955l-.9597.6905a8.4867 8.4867 0 00-.2855-.086l-.414-1.1066a.3483.3483 0 00-.5781-.1154l-.8069.8666a9.2936 9.2936 0 00-.2936-.0284L12.2946.1683a.3462.3462 0 00-.5892 0l-.6236 1.0073a13.7383 13.7383 0 00-.2936.0284L9.9803.3374a.3462.3462 0 00-.578.1154l-.4141 1.1065c-.0962.0274-.1903.0567-.2855.086L7.744.955a.3483.3483 0 00-.5447.2258L7.009 2.348a9.3574 9.3574 0 00-.2622.1407l-1.0762-.491a.3462.3462 0 00-.49.328l.0416 1.1845a7.9826 7.9826 0 00-.2278.1873L3.8413 3.425a.3472.3472 0 00-.4171.4171l.2713 1.1531c-.0628.075-.1255.1509-.1863.2268l-1.1845-.0415a.3462.3462 0 00-.328.49l.491 1.0761a9.167 9.167 0 00-.1407.2622l-1.1662.1894a.3483.3483 0 00-.2258.5446l.6904.9587a13.303 13.303 0 00-.087.2855l-1.1065.414a.3483.3483 0 00-.1155.5781l.8656.807a9.2936 9.2936 0 00-.0283.2935l-1.0073.6236a.3442.3442 0 000 .5892l1.0073.6236c.008.0982.0182.1964.0283.2936l-.8656.8079a.3462.3462 0 00.1155.578l1.1065.4141c.0273.0962.0567.1914.087.2855l-.6904.9587a.3452.3452 0 00.2268.5447l1.1662.1893c.0456.088.0922.1751.1408.2622l-.491 1.0762a.3462.3462 0 00.328.49l1.1834-.0415c.0618.0769.1235.1528.1873.2277l-.2713 1.1541a.3462.3462 0 00.4171.4161l1.153-.2713c.075.0638.151.1255.2279.1863l-.0415 1.1845a.3442.3442 0 00.49.327l1.0761-.49c.087.0486.1741.0951.2622.1407l.1903 1.1662a.3483.3483 0 00.5447.2268l.9587-.6904a9.299 9.299 0 00.2855.087l.414 1.1066a.3452.3452 0 00.5781.1154l.8079-.8656c.0972.0111.1954.0203.2936.0294l.6236 1.0073a.3472.3472 0 00.5892 0l.6236-1.0073c.0982-.0091.1964-.0183.2936-.0294l.8069.8656a.3483.3483 0 00.578-.1154l.4141-1.1066a8.4626 8.4626 0 00.2855-.087l.9587.6904a.3452.3452 0 00.5447-.2268l.1903-1.1662c.088-.0456.1751-.0931.2622-.1407l1.0762.49a.3472.3472 0 00.49-.327l-.0415-1.1845a6.7267 6.7267 0 00.2267-.1863l1.1531.2713a.3472.3472 0 00.4171-.416l-.2713-1.1542c.0628-.0749.1255-.1508.1863-.2278l1.1845.0415a.3442.3442 0 00.328-.49l-.49-1.076c.0475-.0872.0951-.1742.1407-.2623l1.1662-.1893a.3483.3483 0 00.2258-.5447l-.6904-.9587.087-.2855 1.1066-.414a.3462.3462 0 00.1154-.5781l-.8656-.8079c.0101-.0972.0202-.1954.0283-.2936l1.0073-.6236a.3442.3442 0 000-.5892zm-6.7413 8.3551a.7138.7138 0 01.2986-1.396.714.714 0 11-.2997 1.396zm-.3422-2.3142a.649.649 0 00-.7715.5l-.3573 1.6685c-1.1035.501-2.3285.7795-3.6193.7795a8.7368 8.7368 0 01-3.6951-.814l-.3574-1.6684a.648.648 0 00-.7714-.499l-1.473.3158a8.7216 8.7216 0 01-.7613-.898h7.1676c.081 0 .1356-.0141.1356-.088v-2.536c0-.074-.0536-.0881-.1356-.0881h-2.0966v-1.6077h2.2677c.2065 0 1.1065.0587 1.394 1.2088.0901.3533.2875 1.5044.4232 1.8729.1346.413.6833 1.2381 1.2685 1.2381h3.5716a.7492.7492 0 00.1296-.0131 8.7874 8.7874 0 01-.8119.9526zM6.8369 20.024a.714.714 0 11-.2997-1.396.714.714 0 01.2997 1.396zM4.1177 8.9972a.7137.7137 0 11-1.304.5791.7137.7137 0 011.304-.579zm-.8352 1.9813l1.5347-.6824a.65.65 0 00.33-.8585l-.3158-.7147h1.2432v5.6025H3.5669a8.7753 8.7753 0 01-.2834-3.348zm6.7343-.5437V8.7836h2.9601c.153 0 1.0792.1772 1.0792.8697 0 .575-.7107.7815-1.2948.7815zm10.7574 1.4862c0 .2187-.008.4363-.0243.651h-.9c-.09 0-.1265.0586-.1265.1477v.413c0 .973-.5487 1.1846-1.0296 1.2382-.4576.0517-.9648-.1913-1.0275-.4717-.2704-1.5186-.7198-1.8436-1.4305-2.4034.8817-.5599 1.799-1.386 1.799-2.4915 0-1.1936-.819-1.9458-1.3769-2.3153-.7825-.5163-1.6491-.6195-1.883-.6195H5.4682a8.7651 8.7651 0 014.907-2.7699l1.0974 1.151a.648.648 0 00.9182.0213l1.227-1.1743a8.7753 8.7753 0 016.0044 4.2762l-.8403 1.8982a.652.652 0 00.33.8585l1.6178.7188c.0283.2875.0425.577.0425.8717zm-9.3006-9.5993a.7128.7128 0 11.984 1.0316.7137.7137 0 01-.984-1.0316zm8.3389 6.71a.7107.7107 0 01.9395-.3625.7137.7137 0 11-.9405.3635z" fill="#ffffff"/></g>
  <path d="M0 34 L0 0 L96 0" stroke="#e9e9e9" stroke-width="2" fill="none"/>
  <path d="M96 0 L96 34 L0 34" stroke="#33333f" stroke-width="2" fill="none"/>
  <text x="40" y="20" font-family="'Courier New',monospace" font-size="8" font-weight="bold" fill="#eaeaea" letter-spacing="0.3">RUST</text>
</g>
<g transform="translate(548,46)">
  <rect width="96" height="34" fill="#0b0b14"/>
  <rect x="3" y="3" width="30" height="28" fill="#E34F26"/><rect x="3" y="3" width="30" height="6" fill="#ffffff" fill-opacity="0.22"/><g transform="translate(9.0,8.0) scale(0.7500)"><path d="M1.5 0h21l-1.91 21.563L11.977 24l-8.564-2.438L1.5 0zm7.031 9.75l-.232-2.718 10.059.003.23-2.622L5.412 4.41l.698 8.01h9.126l-.326 3.426-2.91.804-2.955-.81-.188-2.11H6.248l.33 4.171L12 19.351l5.379-1.443.744-8.157H8.531z" fill="#ffffff"/></g>
  <path d="M0 34 L0 0 L96 0" stroke="#e9e9e9" stroke-width="2" fill="none"/>
  <path d="M96 0 L96 34 L0 34" stroke="#33333f" stroke-width="2" fill="none"/>
  <text x="40" y="20" font-family="'Courier New',monospace" font-size="8" font-weight="bold" fill="#eaeaea" letter-spacing="0.3">HTML5</text>
</g>
<g transform="translate(18,92)">
  <rect width="96" height="34" fill="#0b0b14"/>
  <rect x="3" y="3" width="30" height="28" fill="#1572B6"/><rect x="3" y="3" width="30" height="6" fill="#ffffff" fill-opacity="0.22"/><g transform="translate(9.0,8.0) scale(0.7500)"><path d="M0 0v20.16A3.84 3.84 0 0 0 3.84 24h16.32A3.84 3.84 0 0 0 24 20.16V3.84A3.84 3.84 0 0 0 20.16 0Zm14.256 13.08c1.56 0 2.28 1.08 2.304 2.64h-1.608c.024-.288-.048-.6-.144-.84-.096-.192-.288-.264-.552-.264-.456 0-.696.264-.696.84-.024.576.288.888.768 1.08.72.288 1.608.744 1.92 1.296q.432.648.432 1.656c0 1.608-.912 2.592-2.496 2.592-1.656 0-2.4-1.032-2.424-2.688h1.68c0 .792.264 1.176.792 1.176.264 0 .456-.072.552-.24.192-.312.24-1.176-.048-1.512-.312-.408-.912-.6-1.32-.816q-.828-.396-1.224-.936c-.24-.36-.36-.888-.36-1.536 0-1.44.936-2.472 2.424-2.448m5.4 0c1.584 0 2.304 1.08 2.328 2.64h-1.608c0-.288-.048-.6-.168-.84-.096-.192-.264-.264-.528-.264-.48 0-.72.264-.72.84s.288.888.792 1.08c.696.288 1.608.744 1.92 1.296.264.432.408.984.408 1.656.024 1.608-.888 2.592-2.472 2.592-1.68 0-2.424-1.056-2.448-2.688h1.68c0 .744.264 1.176.792 1.176.264 0 .456-.072.552-.24.216-.312.264-1.176-.048-1.512-.288-.408-.888-.6-1.32-.816-.552-.264-.96-.576-1.2-.936s-.36-.888-.36-1.536c-.024-1.44.912-2.472 2.4-2.448m-11.031.018c.711-.006 1.419.198 1.839.63.432.432.672 1.128.648 1.992H9.336c.024-.456-.096-.792-.432-.96-.312-.144-.768-.048-.888.24-.12.264-.192.576-.168.864v3.504c0 .744.264 1.128.768 1.128a.65.65 0 0 0 .552-.264c.168-.24.192-.552.168-.84h1.776c.096 1.632-.984 2.712-2.568 2.688-1.536 0-2.496-.864-2.472-2.472v-4.032c0-.816.24-1.44.696-1.848.432-.408 1.146-.624 1.857-.63" fill="#ffffff"/></g>
  <path d="M0 34 L0 0 L96 0" stroke="#e9e9e9" stroke-width="2" fill="none"/>
  <path d="M96 0 L96 34 L0 34" stroke="#33333f" stroke-width="2" fill="none"/>
  <text x="40" y="20" font-family="'Courier New',monospace" font-size="8" font-weight="bold" fill="#eaeaea" letter-spacing="0.3">CSS3</text>
</g>
<g transform="translate(18,148)">
  <rect width="158" height="20" fill="#000080"/>
  <rect width="158" height="20" fill="none" stroke="#c0c0c0" stroke-width="2"/>
  <text x="11" y="14" font-family="'Courier New',monospace" font-size="11" font-weight="bold" fill="#33ff99">FRAMEWORKS &amp; LIBS</text>
</g>
<g transform="translate(18,176)">
  <rect width="96" height="34" fill="#0b0b14"/>
  <rect x="3" y="3" width="30" height="28" fill="#7B5BD6"/><rect x="3" y="3" width="30" height="6" fill="#ffffff" fill-opacity="0.22"/><g transform="translate(9.0,8.0) scale(0.7500)"><path d="M24 8.77h-2.468v7.565h-1.425V8.77h-2.462V7.53H24zm-6.852 7.565h-4.821V7.53h4.63v1.24h-3.205v2.494h2.953v1.234h-2.953v2.604h3.396zm-6.708 0H8.882L4.78 9.863a2.896 2.896 0 0 1-.258-.51h-.036c.032.189.048.592.048 1.21v5.772H3.157V7.53h1.659l3.965 6.32c.167.261.275.442.323.54h.024c-.04-.233-.06-.629-.06-1.185V7.529h1.372zm-8.703-.693a.868.829 0 0 1-.869.829.868.829 0 0 1-.868-.83.868.829 0 0 1 .868-.828.868.829 0 0 1 .869.829Z" fill="#ffffff"/></g>
  <path d="M0 34 L0 0 L96 0" stroke="#e9e9e9" stroke-width="2" fill="none"/>
  <path d="M96 0 L96 34 L0 34" stroke="#33333f" stroke-width="2" fill="none"/>
  <text x="40" y="20" font-family="'Courier New',monospace" font-size="8" font-weight="bold" fill="#eaeaea" letter-spacing="0.3">ASP.NET</text>
</g>
<g transform="translate(124,176)">
  <rect width="96" height="34" fill="#0b0b14"/>
  <rect x="3" y="3" width="30" height="28" fill="#9AA0A6"/><rect x="3" y="3" width="30" height="6" fill="#ffffff" fill-opacity="0.22"/><g transform="translate(9.0,8.0) scale(0.7500)"><path d="M10.773 2.878c-.013 1.434.322 4.624.445 5.734l-8.558 3.83c-.56-.959-.98-2.304-1.237-3.38l-.06.027c-.205.09-.406.053-.494-.088l-.011-.018-.82-1.506c-.058-.105-.05-.252.024-.392a.78.78 0 0 1 .358-.331l9.824-4.207c.146-.064.299-.063.4.004.106.062.127.128.13.327Zm.68 7c.523 1.97.675 2.412.832 2.818l-7.263 3.7a19.35 19.35 0 0 1-1.81-2.83l8.24-3.689Zm12.432 8.786h.003c.283.402-.047.657-.153.698l-.947.37c.037.125.035.319-.217.414l-.736.287c-.229.09-.398-.059-.42-.2l-.025-.125c-4.427 1.784-7.94 1.685-10.696.647-1.981-.745-3.576-1.983-4.846-3.379l6.948-3.54c.721 1.431 1.586 2.454 2.509 3.178 2.086 1.638 4.415 1.712 5.793 1.563l-.047-.233c-.015-.077.007-.135.086-.165l.734-.288a.302.302 0 0 1 .342.086l.748-.288a.306.306 0 0 1 .341.086l.583.89Z" fill="#111111"/></g>
  <path d="M0 34 L0 0 L96 0" stroke="#e9e9e9" stroke-width="2" fill="none"/>
  <path d="M96 0 L96 34 L0 34" stroke="#33333f" stroke-width="2" fill="none"/>
  <text x="40" y="20" font-family="'Courier New',monospace" font-size="8" font-weight="bold" fill="#eaeaea" letter-spacing="0.3">FLASK</text>
</g>
<g transform="translate(230,176)">
  <rect width="96" height="34" fill="#0b0b14"/>
  <rect x="3" y="3" width="30" height="28" fill="#9AA0A6"/><rect x="3" y="3" width="30" height="6" fill="#ffffff" fill-opacity="0.22"/><g transform="translate(9.0,8.0) scale(0.7500)"><path d="M18.665 21.978C16.758 23.255 14.465 24 12 24 5.377 24 0 18.623 0 12S5.377 0 12 0s12 5.377 12 12c0 3.583-1.574 6.801-4.067 9.001L9.219 7.2H7.2v9.596h1.615V9.251l9.85 12.727Zm-3.332-8.533 1.6 2.061V7.2h-1.6v6.245Z" fill="#111111"/></g>
  <path d="M0 34 L0 0 L96 0" stroke="#e9e9e9" stroke-width="2" fill="none"/>
  <path d="M96 0 L96 34 L0 34" stroke="#33333f" stroke-width="2" fill="none"/>
  <text x="40" y="20" font-family="'Courier New',monospace" font-size="8" font-weight="bold" fill="#eaeaea" letter-spacing="0.3">NEXT.JS</text>
</g>
<g transform="translate(336,176)">
  <rect width="96" height="34" fill="#0b0b14"/>
  <rect x="3" y="3" width="30" height="28" fill="#4FC08D"/><rect x="3" y="3" width="30" height="6" fill="#ffffff" fill-opacity="0.22"/><g transform="translate(9.0,8.0) scale(0.7500)"><path d="M24,1.61H14.06L12,5.16,9.94,1.61H0L12,22.39ZM12,14.08,5.16,2.23H9.59L12,6.41l2.41-4.18h4.43Z" fill="#111111"/></g>
  <path d="M0 34 L0 0 L96 0" stroke="#e9e9e9" stroke-width="2" fill="none"/>
  <path d="M96 0 L96 34 L0 34" stroke="#33333f" stroke-width="2" fill="none"/>
  <text x="40" y="20" font-family="'Courier New',monospace" font-size="8" font-weight="bold" fill="#eaeaea" letter-spacing="0.3">VUE.JS</text>
</g>
<g transform="translate(442,176)">
  <rect width="96" height="34" fill="#0b0b14"/>
  <rect x="3" y="3" width="30" height="28" fill="#FF3E00"/><rect x="3" y="3" width="30" height="6" fill="#ffffff" fill-opacity="0.22"/><g transform="translate(9.0,8.0) scale(0.7500)"><path d="M10.354 21.125a4.44 4.44 0 0 1-4.765-1.767 4.109 4.109 0 0 1-.703-3.107 3.898 3.898 0 0 1 .134-.522l.105-.321.287.21a7.21 7.21 0 0 0 2.186 1.092l.208.063-.02.208a1.253 1.253 0 0 0 .226.83 1.337 1.337 0 0 0 1.435.533 1.231 1.231 0 0 0 .343-.15l5.59-3.562a1.164 1.164 0 0 0 .524-.778 1.242 1.242 0 0 0-.211-.937 1.338 1.338 0 0 0-1.435-.533 1.23 1.23 0 0 0-.343.15l-2.133 1.36a4.078 4.078 0 0 1-1.135.499 4.44 4.44 0 0 1-4.765-1.766 4.108 4.108 0 0 1-.702-3.108 3.855 3.855 0 0 1 1.742-2.582l5.589-3.563a4.072 4.072 0 0 1 1.135-.499 4.44 4.44 0 0 1 4.765 1.767 4.109 4.109 0 0 1 .703 3.107 3.943 3.943 0 0 1-.134.522l-.105.321-.286-.21a7.204 7.204 0 0 0-2.187-1.093l-.208-.063.02-.207a1.255 1.255 0 0 0-.226-.831 1.337 1.337 0 0 0-1.435-.532 1.231 1.231 0 0 0-.343.15L8.62 9.368a1.162 1.162 0 0 0-.524.778 1.24 1.24 0 0 0 .211.937 1.338 1.338 0 0 0 1.435.533 1.235 1.235 0 0 0 .344-.151l2.132-1.36a4.067 4.067 0 0 1 1.135-.498 4.44 4.44 0 0 1 4.765 1.766 4.108 4.108 0 0 1 .702 3.108 3.857 3.857 0 0 1-1.742 2.583l-5.589 3.562a4.072 4.072 0 0 1-1.135.499m10.358-17.95C18.484-.015 14.082-.96 10.9 1.068L5.31 4.63a6.412 6.412 0 0 0-2.896 4.295 6.753 6.753 0 0 0 .666 4.336 6.43 6.43 0 0 0-.96 2.396 6.833 6.833 0 0 0 1.168 5.167c2.229 3.19 6.63 4.135 9.812 2.108l5.59-3.562a6.41 6.41 0 0 0 2.896-4.295 6.756 6.756 0 0 0-.665-4.336 6.429 6.429 0 0 0 .958-2.396 6.831 6.831 0 0 0-1.167-5.168Z" fill="#ffffff"/></g>
  <path d="M0 34 L0 0 L96 0" stroke="#e9e9e9" stroke-width="2" fill="none"/>
  <path d="M96 0 L96 34 L0 34" stroke="#33333f" stroke-width="2" fill="none"/>
  <text x="40" y="20" font-family="'Courier New',monospace" font-size="8" font-weight="bold" fill="#eaeaea" letter-spacing="0.3">SVELTE</text>
</g>
<g transform="translate(548,176)">
  <rect width="96" height="34" fill="#0b0b14"/>
  <rect x="3" y="3" width="30" height="28" fill="#24C8DB"/><rect x="3" y="3" width="30" height="6" fill="#ffffff" fill-opacity="0.22"/><g transform="translate(9.0,8.0) scale(0.7500)"><path d="M13.912 0a8.72 8.72 0 0 0-8.308 6.139c1.05-.515 2.18-.845 3.342-.976 2.415-3.363 7.4-3.412 9.88-.097 2.48 3.315 1.025 8.084-2.883 9.45a6.131 6.131 0 0 1-.3 2.762 8.72 8.72 0 0 0 3.01-1.225A8.72 8.72 0 0 0 13.913 0zm.082 6.451a2.284 2.284 0 1 0-.15 4.566 2.284 2.284 0 0 0 .15-4.566zm-5.629.27a8.72 8.72 0 0 0-3.031 1.235 8.72 8.72 0 1 0 13.06 9.9131 10.173 10.174 0 0 1-3.343.965 6.125 6.125 0 1 1-7.028-9.343 6.114 6.115 0 0 1 .342-2.772zm1.713 6.27a2.284 2.284 0 0 0-2.284 2.283 2.284 2.284 0 0 0 2.284 2.284 2.284 2.284 0 0 0 2.284-2.284 2.284 2.284 0 0 0-2.284-2.284z" fill="#111111"/></g>
  <path d="M0 34 L0 0 L96 0" stroke="#e9e9e9" stroke-width="2" fill="none"/>
  <path d="M96 0 L96 34 L0 34" stroke="#33333f" stroke-width="2" fill="none"/>
  <text x="40" y="20" font-family="'Courier New',monospace" font-size="8" font-weight="bold" fill="#eaeaea" letter-spacing="0.3">TAURI</text>
</g>
<g transform="translate(18,222)">
  <rect width="96" height="34" fill="#0b0b14"/>
  <rect x="3" y="3" width="30" height="28" fill="#47848F"/><rect x="3" y="3" width="30" height="6" fill="#ffffff" fill-opacity="0.22"/><g transform="translate(9.0,8.0) scale(0.7500)"><path d="M12.0111 0c-.85 0-1.5392.6891-1.5392 1.5392 0 .8501.6891 1.5393 1.5392 1.5393.595 0 1.11-.338 1.3662-.832 2.2208 1.2675 3.847 5.4728 3.847 10.3623 0 2.0715-.2891 4.056-.825 5.7685a.3215.3215 0 0 0 .2107.403.322.322 0 0 0 .4033-.2111c.5558-1.7763.8542-3.8251.8542-5.9604 0-5.1927-1.7717-9.686-4.3206-11.0027.001-.0223.0035-.0443.0035-.0669 0-.85-.6891-1.5392-1.5393-1.5392zm0 .6432a.896.896 0 1 1 0 1.792.896.896 0 1 1 0-1.792zm-5.486 4.3052c-2.067.0074-3.6473.6646-4.3885 1.9485-.7375 1.2774-.5267 2.971.5113 4.7813a.3217.3217 0 0 0 .558-.32C2.271 9.7274 2.089 8.266 2.6938 7.2185c.821-1.422 3.033-1.9552 5.9321-1.4271a.3216.3216 0 0 0 .1153-.6329c-.784-.1428-1.5271-.2125-2.216-.21zm11.0522.0176a.3216.3216 0 0 0-.0084.6432c1.8337.0239 3.1556.5956 3.7502 1.6256.8192 1.419.1798 3.5947-1.7182 5.837a.322.322 0 0 0 .0377.4535.3215.3215 0 0 0 .4532-.0377c2.0535-2.426 2.7708-4.8661 1.7845-6.5744-.7257-1.257-2.26-1.9207-4.299-1.9472zm-2.6984.2924a.3225.3225 0 0 0-.0647.0072c-1.8568.3979-3.8333 1.1755-5.7314 2.2714-4.5699 2.6384-7.5924 6.4948-7.3601 9.3717-.4726.2628-.7928.7664-.7928 1.3455 0 .85.6892 1.5392 1.5393 1.5392.85 0 1.5392-.6891 1.5392-1.5392 0-.8501-.6891-1.5393-1.5392-1.5393-.038 0-.0754.003-.1128.0057-.1002-2.5597 2.7434-6.1412 7.048-8.6265 1.8413-1.063 3.7551-1.8163 5.5445-2.1997a.3217.3217 0 0 0-.07-.636zm-2.8787 6.2364a1.1192 1.1192 0 0 0-.2243.0255c-.6012.1301-.983.7225-.8533 1.3238.1302.6012.7226.9832 1.3238.8533.6012-.1302.9832-.7226.8533-1.3238-.1139-.526-.5816-.8844-1.0995-.8788zM4.532 13.341a.321.321 0 0 0-.2318.0835.3214.3214 0 0 0-.0214.4542c1.2682 1.3936 2.9157 2.701 4.7946 3.7857 4.4146 2.5489 9.1056 3.2849 11.5608 1.8392a1.53 1.53 0 0 0 .8966.2899c.8501 0 1.5392-.6891 1.5392-1.5392 0-.8501-.689-1.5393-1.5392-1.5393-.85 0-1.5392.6892-1.5392 1.5393 0 .276.0737.5344.201.7584-2.2448 1.214-6.631.5002-10.7976-1.9054-1.8228-1.0524-3.418-2.3181-4.6404-3.6614a.3206.3206 0 0 0-.2226-.1049zm-2.0628 4.0172a.896.896 0 1 1 0 1.792.896.896 0 1 1 0-1.792zm19.0616 0a.896.896 0 1 1 0 1.792.891.891 0 0 1-.5864-.2194c-.0025-.004-.0039-.0083-.0066-.0123a.3195.3195 0 0 0-.0957-.0914.896.896 0 0 1 .6887-1.4689zm-14.0045 1.368a.3215.3215 0 0 0-.3207.4296C8.2793 22.154 10.036 24 12.0111 24c1.4406 0 2.7735-.9822 3.8128-2.711a.3215.3215 0 0 0-.11-.4413.3219.3219 0 0 0-.4415.11c-.934 1.5537-2.0812 2.399-3.2613 2.399-1.6407 0-3.2075-1.6465-4.2-4.4179a.3216.3216 0 0 0-.2848-.2126z" fill="#ffffff"/></g>
  <path d="M0 34 L0 0 L96 0" stroke="#e9e9e9" stroke-width="2" fill="none"/>
  <path d="M96 0 L96 34 L0 34" stroke="#33333f" stroke-width="2" fill="none"/>
  <text x="40" y="20" font-family="'Courier New',monospace" font-size="8" font-weight="bold" fill="#eaeaea" letter-spacing="0.3">ELECTRON</text>
</g>
<g transform="translate(124,222)">
  <rect width="96" height="34" fill="#0b0b14"/>
  <rect x="3" y="3" width="30" height="28" fill="#646CFF"/><rect x="3" y="3" width="30" height="6" fill="#ffffff" fill-opacity="0.22"/><g transform="translate(9.0,8.0) scale(0.7500)"><path d="M13.056 23.238a.57.57 0 0 1-1.02-.355v-5.202c0-.63-.512-1.143-1.144-1.143H5.148a.57.57 0 0 1-.464-.903l3.777-5.29c.54-.753 0-1.804-.93-1.804H.57a.574.574 0 0 1-.543-.746.6.6 0 0 1 .08-.157L5.008.78a.57.57 0 0 1 .467-.24h14.589a.57.57 0 0 1 .466.903l-3.778 5.29c-.54.755 0 1.806.93 1.806h5.745c.238 0 .424.138.513.322a.56.56 0 0 1-.063.603z" fill="#ffffff"/></g>
  <path d="M0 34 L0 0 L96 0" stroke="#e9e9e9" stroke-width="2" fill="none"/>
  <path d="M96 0 L96 34 L0 34" stroke="#33333f" stroke-width="2" fill="none"/>
  <text x="40" y="20" font-family="'Courier New',monospace" font-size="8" font-weight="bold" fill="#eaeaea" letter-spacing="0.3">VITE</text>
</g>
<g transform="translate(230,222)">
  <rect width="96" height="34" fill="#0b0b14"/>
  <rect x="3" y="3" width="30" height="28" fill="#2EAD33"/><rect x="3" y="3" width="30" height="6" fill="#ffffff" fill-opacity="0.22"/><g transform="translate(9.0,8.0) scale(0.1406)"><path d="M43.662 70.898c-4.124 1.17-6.829 3.222-8.611 5.272 1.707-1.494 3.993-2.865 7.077-3.739 3.155-.894 5.846-.888 8.069-.459v-1.739c-1.897-.173-4.072-.035-6.536.664ZM34.863 56.28l-15.314 4.035s.279.394.796.92l12.984-3.421s-.184 2.371-1.782 4.492c3.022-2.287 3.316-6.025 3.316-6.025Zm12.819 35.991C26.131 98.076 14.729 73.1 11.277 60.137 9.682 54.153 8.986 49.621 8.8 46.697a4.955 4.955 0 0 1 .011-.794c-1.118.068-1.653.649-1.544 2.328.186 2.923.882 7.454 2.477 13.44 3.45 12.961 14.854 37.937 36.405 32.132 4.691-1.264 8.215-3.565 10.86-6.504-2.438 2.202-5.49 3.937-9.327 4.972Zm4.05-51.276v1.534h8.453c-.173-.543-.348-1.032-.522-1.534h-7.932Z" fill="#ffffff"/><path d="M62.074 53.627c3.802 1.08 5.812 3.745 6.875 6.104l4.239 1.204s-.578-8.255-8.045-10.376c-6.985-1.985-11.284 3.881-11.807 4.64 2.032-1.448 4.999-2.633 8.738-1.572Zm33.741 6.142c-6.992-1.994-11.289 3.884-11.804 4.633 2.034-1.446 4.999-2.632 8.737-1.566 3.796 1.081 5.804 3.743 6.87 6.104l4.245 1.208s-.588-8.257-8.048-10.379Zm-4.211 21.766-35.261-9.858s.382 1.935 1.846 4.441l29.688 8.3c2.444-1.414 3.726-2.883 3.726-2.883Zm-24.446 21.218c-27.92-7.485-24.544-43.059-20.027-59.916 1.86-6.947 3.772-12.11 5.358-15.572-.946-.195-1.73.304-2.504 1.878-1.684 3.415-3.837 8.976-5.921 16.76-4.516 16.857-7.892 52.429 20.027 59.914 13.159 3.525 23.411-1.833 31.053-10.247-7.254 6.57-16.515 10.253-27.986 7.182Z" fill="#ffffff"/><path d="M51.732 83.935v-7.179l-19.945 5.656s1.474-8.563 11.876-11.514c3.155-.894 5.846-.888 8.069-.459V40.995h9.987c-1.087-3.36-2.139-5.947-3.023-7.744-1.461-2.975-2.96-1.003-6.361 1.842-2.396 2.001-8.45 6.271-17.561 8.726-9.111 2.457-16.476 1.805-19.55 1.273-4.357-.752-6.636-1.708-6.422 1.605.186 2.923.882 7.455 2.477 13.44 3.45 12.962 14.854 37.937 36.405 32.132 5.629-1.517 9.603-4.515 12.357-8.336h-8.309v.002Zm-32.185-23.62 15.316-4.035s-.446 5.892-6.188 7.405c-5.743 1.512-9.128-3.371-9.128-3.371Z" fill="#ffffff"/><path d="M109.372 41.336c-3.981.698-13.532 1.567-25.336-1.596-11.807-3.162-19.64-8.692-22.744-11.292-4.4-3.685-6.335-6.246-8.24-2.372-1.684 3.417-3.837 8.977-5.921 16.762-4.516 16.857-7.892 52.429 20.027 59.914 27.912 7.479 42.772-25.017 47.289-41.875 2.084-7.783 2.998-13.676 3.25-17.476.287-4.305-2.67-3.055-8.324-2.064ZM53.28 55.282s4.4-6.843 11.862-4.722c7.467 2.121 8.045 10.376 8.045 10.376L53.28 55.282Zm18.215 30.706c-13.125-3.845-15.15-14.311-15.15-14.311l35.259 9.858c0-.002-7.117 8.25-20.109 4.453Zm12.466-21.51s4.394-6.838 11.854-4.711c7.46 2.124 8.048 10.379 8.048 10.379l-19.902-5.668Z" fill="#ffffff"/><path d="M44.762 78.733 31.787 82.41s1.41-8.029 10.968-11.212l-7.347-27.573-.635.193c-9.111 2.457-16.476 1.805-19.55 1.273-4.357-.751-6.636-1.708-6.422 1.606.186 2.923.882 7.454 2.477 13.44 3.45 12.961 14.854 37.937 36.405 32.132l.635-.199-3.555-13.337ZM19.548 60.315l15.316-4.035s-.446 5.892-6.188 7.405c-5.743 1.512-9.128-3.371-9.128-3.371Z" fill="#ffffff"/><path d="m72.086 86.132-.594-.144c-13.125-3.844-15.15-14.311-15.15-14.311l18.182 5.082L84.15 39.77l-.116-.031c-11.807-3.162-19.64-8.692-22.744-11.292-4.4-3.685-6.335-6.246-8.24-2.372-1.682 3.417-3.836 8.977-5.92 16.762-4.516 16.857-7.892 52.429 20.027 59.914l.572.129 4.357-16.748Zm-18.807-30.85s4.4-6.843 11.862-4.722c7.467 2.121 8.045 10.376 8.045 10.376l-19.907-5.654Z" fill="#ffffff"/><path d="m45.423 78.544-3.48.988c.822 4.634 2.271 9.082 4.545 13.011.396-.087.788-.163 1.192-.273a25.224 25.224 0 0 0 2.98-1.023c-2.541-3.771-4.222-8.114-5.237-12.702Zm-1.359-32.64c-1.788 6.674-3.388 16.28-2.948 25.915a20.061 20.061 0 0 1 2.546-.923l.644-.144c-.785-10.292.912-20.78 2.825-27.915a139.404 139.404 0 0 1 1.455-5.05 45.171 45.171 0 0 1-2.578 1.53 132.234 132.234 0 0 0-1.944 6.587Z" fill="#ffffff"/></g>
  <path d="M0 34 L0 0 L96 0" stroke="#e9e9e9" stroke-width="2" fill="none"/>
  <path d="M96 0 L96 34 L0 34" stroke="#33333f" stroke-width="2" fill="none"/>
  <text x="40" y="20" font-family="'Courier New',monospace" font-size="8" font-weight="bold" fill="#eaeaea" letter-spacing="0.3">PLAYWRIGHT</text>
</g>
<g transform="translate(18,278)">
  <rect width="94" height="20" fill="#000080"/>
  <rect width="94" height="20" fill="none" stroke="#c0c0c0" stroke-width="2"/>
  <text x="11" y="14" font-family="'Courier New',monospace" font-size="11" font-weight="bold" fill="#33ff99">DATABASES</text>
</g>
<g transform="translate(18,306)">
  <rect width="96" height="34" fill="#0b0b14"/>
  <rect x="3" y="3" width="30" height="28" fill="#4169E1"/><rect x="3" y="3" width="30" height="6" fill="#ffffff" fill-opacity="0.22"/><g transform="translate(9.0,8.0) scale(0.7500)"><path d="M23.5594 14.7228a.5269.5269 0 0 0-.0563-.1191c-.139-.2632-.4768-.3418-1.0074-.2321-1.6533.3411-2.2935.1312-2.5256-.0191 1.342-2.0482 2.445-4.522 3.0411-6.8297.2714-1.0507.7982-3.5237.1222-4.7316a1.5641 1.5641 0 0 0-.1509-.235C21.6931.9086 19.8007.0248 17.5099.0005c-1.4947-.0158-2.7705.3461-3.1161.4794a9.449 9.449 0 0 0-.5159-.0816 8.044 8.044 0 0 0-1.3114-.1278c-1.1822-.0184-2.2038.2642-3.0498.8406-.8573-.3211-4.7888-1.645-7.2219.0788C.9359 2.1526.3086 3.8733.4302 6.3043c.0409.818.5069 3.334 1.2423 5.7436.4598 1.5065.9387 2.7019 1.4334 3.582.553.9942 1.1259 1.5933 1.7143 1.7895.4474.1491 1.1327.1441 1.8581-.7279.8012-.9635 1.5903-1.8258 1.9446-2.2069.4351.2355.9064.3625 1.39.3772a.0569.0569 0 0 0 .0004.0041 11.0312 11.0312 0 0 0-.2472.3054c-.3389.4302-.4094.5197-1.5002.7443-.3102.064-1.1344.2339-1.1464.8115-.0025.1224.0329.2309.0919.3268.2269.4231.9216.6097 1.015.6331 1.3345.3335 2.5044.092 3.3714-.6787-.017 2.231.0775 4.4174.3454 5.0874.2212.5529.7618 1.9045 2.4692 1.9043.2505 0 .5263-.0291.8296-.0941 1.7819-.3821 2.5557-1.1696 2.855-2.9059.1503-.8707.4016-2.8753.5388-4.1012.0169-.0703.0357-.1207.057-.1362.0007-.0005.0697-.0471.4272.0307a.3673.3673 0 0 0 .0443.0068l.2539.0223.0149.001c.8468.0384 1.9114-.1426 2.5312-.4308.6438-.2988 1.8057-1.0323 1.5951-1.6698zM2.371 11.8765c-.7435-2.4358-1.1779-4.8851-1.2123-5.5719-.1086-2.1714.4171-3.6829 1.5623-4.4927 1.8367-1.2986 4.8398-.5408 6.108-.13-.0032.0032-.0066.0061-.0098.0094-2.0238 2.044-1.9758 5.536-1.9708 5.7495-.0002.0823.0066.1989.0162.3593.0348.5873.0996 1.6804-.0735 2.9184-.1609 1.1504.1937 2.2764.9728 3.0892.0806.0841.1648.1631.2518.2374-.3468.3714-1.1004 1.1926-1.9025 2.1576-.5677.6825-.9597.5517-1.0886.5087-.3919-.1307-.813-.5871-1.2381-1.3223-.4796-.839-.9635-2.0317-1.4155-3.5126zm6.0072 5.0871c-.1711-.0428-.3271-.1132-.4322-.1772.0889-.0394.2374-.0902.4833-.1409 1.2833-.2641 1.4815-.4506 1.9143-1.0002.0992-.126.2116-.2687.3673-.4426a.3549.3549 0 0 0 .0737-.1298c.1708-.1513.2724-.1099.4369-.0417.156.0646.3078.26.3695.4752.0291.1016.0619.2945-.0452.4444-.9043 1.2658-2.2216 1.2494-3.1676 1.0128zm2.094-3.988-.0525.141c-.133.3566-.2567.6881-.3334 1.003-.6674-.0021-1.3168-.2872-1.8105-.8024-.6279-.6551-.9131-1.5664-.7825-2.5004.1828-1.3079.1153-2.4468.079-3.0586-.005-.0857-.0095-.1607-.0122-.2199.2957-.2621 1.6659-.9962 2.6429-.7724.4459.1022.7176.4057.8305.928.5846 2.7038.0774 3.8307-.3302 4.7363-.084.1866-.1633.3629-.2311.5454zm7.3637 4.5725c-.0169.1768-.0358.376-.0618.5959l-.146.4383a.3547.3547 0 0 0-.0182.1077c-.0059.4747-.054.6489-.115.8693-.0634.2292-.1353.4891-.1794 1.0575-.11 1.4143-.8782 2.2267-2.4172 2.5565-1.5155.3251-1.7843-.4968-2.0212-1.2217a6.5824 6.5824 0 0 0-.0769-.2266c-.2154-.5858-.1911-1.4119-.1574-2.5551.0165-.5612-.0249-1.9013-.3302-2.6462.0044-.2932.0106-.5909.019-.8918a.3529.3529 0 0 0-.0153-.1126 1.4927 1.4927 0 0 0-.0439-.208c-.1226-.4283-.4213-.7866-.7797-.9351-.1424-.059-.4038-.1672-.7178-.0869.067-.276.1831-.5875.309-.9249l.0529-.142c.0595-.16.134-.3257.213-.5012.4265-.9476 1.0106-2.2453.3766-5.1772-.2374-1.0981-1.0304-1.6343-2.2324-1.5098-.7207.0746-1.3799.3654-1.7088.5321a5.6716 5.6716 0 0 0-.1958.1041c.0918-1.1064.4386-3.1741 1.7357-4.4823a4.0306 4.0306 0 0 1 .3033-.276.3532.3532 0 0 0 .1447-.0644c.7524-.5706 1.6945-.8506 2.802-.8325.4091.0067.8017.0339 1.1742.081 1.939.3544 3.2439 1.4468 4.0359 2.3827.8143.9623 1.2552 1.9315 1.4312 2.4543-1.3232-.1346-2.2234.1268-2.6797.779-.9926 1.4189.543 4.1729 1.2811 5.4964.1353.2426.2522.4522.2889.5413.2403.5825.5515.9713.7787 1.2552.0696.087.1372.1714.1885.245-.4008.1155-1.1208.3825-1.0552 1.717-.0123.1563-.0423.4469-.0834.8148-.0461.2077-.0702.4603-.0994.7662zm.8905-1.6211c-.0405-.8316.2691-.9185.5967-1.0105a2.8566 2.8566 0 0 0 .135-.0406 1.202 1.202 0 0 0 .1342.103c.5703.3765 1.5823.4213 3.0068.1344-.2016.1769-.5189.3994-.9533.6011-.4098.1903-1.0957.333-1.7473.3636-.7197.0336-1.0859-.0807-1.1721-.151zm.5695-9.2712c-.0059.3508-.0542.6692-.1054 1.0017-.055.3576-.112.7274-.1264 1.1762-.0142.4368.0404.8909.0932 1.3301.1066.887.216 1.8003-.2075 2.7014a3.5272 3.5272 0 0 1-.1876-.3856c-.0527-.1276-.1669-.3326-.3251-.6162-.6156-1.1041-2.0574-3.6896-1.3193-4.7446.3795-.5427 1.3408-.5661 2.1781-.463zm.2284 7.0137a12.3762 12.3762 0 0 0-.0853-.1074l-.0355-.0444c.7262-1.1995.5842-2.3862.4578-3.4385-.0519-.4318-.1009-.8396-.0885-1.2226.0129-.4061.0666-.7543.1185-1.0911.0639-.415.1288-.8443.1109-1.3505.0134-.0531.0188-.1158.0118-.1902-.0457-.4855-.5999-1.938-1.7294-3.253-.6076-.7073-1.4896-1.4972-2.6889-2.0395.5251-.1066 1.2328-.2035 2.0244-.1859 2.0515.0456 3.6746.8135 4.8242 2.2824a.908.908 0 0 1 .0667.1002c.7231 1.3556-.2762 6.2751-2.9867 10.5405zm-8.8166-6.1162c-.025.1794-.3089.4225-.6211.4225a.5821.5821 0 0 1-.0809-.0056c-.1873-.026-.3765-.144-.5059-.3156-.0458-.0605-.1203-.178-.1055-.2844.0055-.0401.0261-.0985.0925-.1488.1182-.0894.3518-.1226.6096-.0867.3163.0441.6426.1938.6113.4186zm7.9305-.4114c.0111.0792-.049.201-.1531.3102-.0683.0717-.212.1961-.4079.2232a.5456.5456 0 0 1-.075.0052c-.2935 0-.5414-.2344-.5607-.3717-.024-.1765.2641-.3106.5611-.352.297-.0414.6111.0088.6356.1851z" fill="#ffffff"/></g>
  <path d="M0 34 L0 0 L96 0" stroke="#e9e9e9" stroke-width="2" fill="none"/>
  <path d="M96 0 L96 34 L0 34" stroke="#33333f" stroke-width="2" fill="none"/>
  <text x="40" y="20" font-family="'Courier New',monospace" font-size="8" font-weight="bold" fill="#eaeaea" letter-spacing="0.3">POSTGRES</text>
</g>
<g transform="translate(124,306)">
  <rect width="96" height="34" fill="#0b0b14"/>
  <rect x="3" y="3" width="30" height="28" fill="#CC2927"/><rect x="3" y="3" width="30" height="6" fill="#ffffff" fill-opacity="0.22"/><g transform="translate(9.0,8.0) scale(0.1406)"><path d="M52.935 0v.002c-.426-.058-7.306 2.42-11.742 4.223-5.988 2.44-10.636 4.766-13.504 6.78-.926.657-2.054 1.75-2.475 2.37l-.007-.021a1.424 1.424 0 0 0-.069.148c-.022.04-.052.086-.066.12a1.812 1.812 0 0 0-.115.66l.064.06c.017.207.065.44.168.695.252.62.988 1.376 1.822 2.15 0 0 8.621 8.409 9.668 9.61 4.766 5.503 6.84 10.927 7.034 18.406.117 4.805-.796 9.03-3.063 13.932-4.03 8.796-12.535 18.504-25.652 29.276l.199-.067c-.09.072-.208.174-.295.242-1.57 1.24-3.896 3.565-5.078 5.038-1.764 2.209-3.157 4.553-3.758 6.355-1.066 3.255-.543 6.548 1.51 9.59 2.636 3.875 7.887 7.83 14.01 10.521 3.12 1.377 8.368 3.14 12.322 4.127 6.567 1.667 19.28 3.469 26.273 3.739 1.414.059 3.312.059 3.39 0 .155-.097 1.241-2.168 2.501-4.744 4.3-8.778 7.399-17.013 9.086-24.047 1.007-4.262 1.801-9.94 2.324-16.663.136-1.88.194-8.177.078-10.308-.175-3.487-.483-6.316-.968-9.086a4.17 4.17 0 0 1-.07-.573c15.578-4.628 32.768-8.821 44.187-10.568l1.764-.271-.272-.428c-1.55-2.403-2.615-3.894-3.894-5.483-3.72-4.61-8.233-8.349-13.756-11.449-7.595-4.244-17.419-7.557-29.858-10.018-2.344-.465-7.495-1.357-11.68-1.996l-.39-.699c-2.287-4.03-4.805-9.027-6.278-12.398-1.142-2.616-2.228-5.639-2.828-7.809C53.187.098 53.15.02 52.935 0Zm-.31.988h.02c.018.02.095.564.173 1.203.33 2.712.931 5.328 1.881 8.157.716 2.13.716 2.015-.117 1.763-1.976-.542-10.83-2.072-17.244-2.964-1.027-.135-1.899-.271-1.899-.291-.077-.078 4.63-2.537 6.703-3.506 2.654-1.22 9.94-4.265 10.483-4.362ZM33.947 9.67l.756.252c4.108 1.395 14.434 3.373 20.13 3.838.64.058 1.182.115 1.2.115.02.02-.52.31-1.219.639-2.75 1.376-5.775 3.061-7.867 4.36-.476.296-.912.546-1.127.648a1193.726 1193.726 0 0 1-1.932-.315l-1.824-1.787a803.536 803.536 0 0 0-7.11-6.84zm-.775.602 2.732 3.41c1.492 1.88 3.003 3.72 3.332 4.127.291.359.503.622.543.7-1.935-.337-4.006-.708-5.6-1.052-1.163-.252-3.39-.775-5.134-1.375-.18-.07-.385-.146-.58-.219v-.205c.02-1.3 1.666-3.238 4.455-5.213zm23.173 4.646c.015-.007.03-.006.04.004.077 0 .172.172.404.695.66 1.453 2.715 5.367 3.219 6.123l.064.104a1193.726 1193.726 0 0 1-10.977-1.79 2.86 2.86 0 0 1 .372-.232c2.035-1.124 4.088-2.557 5.91-4.088.445-.368.851-.715.93-.773a.097.097 0 0 1 .038-.043zm-26.138 3.275c.019-.018.329.1.736.235a50.336 50.336 0 0 0 2.81.851 142.909 142.909 0 0 0 2.557.678c1.162.29 2.132.563 2.15.563.137.136 2.094 6.394 2.753 8.797.252.91.446 1.685.427 1.685-.02.02-.234-.31-.486-.756-2.267-3.99-5.851-8.04-9.998-11.297-.542-.387-.95-.736-.95-.756zm9.513 2.618c0 .038 0 .02.02.02.098 0 .524.057 1.047.173 3.293.736 9.203 1.86 12.98 2.5.64.097 1.143.214 1.143.252 0 .04-.23.175-.522.33-.64.33-3.217 1.86-4.07 2.44-2.15 1.435-4.087 2.983-5.482 4.378a79.99 79.99 0 0 1-1.047 1.028s-.115-.33-.213-.737c-.697-2.694-2.15-6.684-3.469-9.494-.213-.445-.387-.852-.387-.89zm16.8 3.215c.115.04.31.699.697 2.152a31.732 31.732 0 0 1 .93 8.873c-.04.814-.079 1.57-.118 1.668l-.057.191-1.007-.33c-2.073-.658-5.444-1.645-8.33-2.459-1.648-.446-2.985-.852-2.985-.89 0-.117 2.403-2.52 3.43-3.43 1.956-1.725 7.264-5.832 7.44-5.775zm1.335.195c.058-.058 8.024 1.316 11.647 2.014 2.694.523 6.607 1.338 6.84 1.435.115.04-.291.269-1.59.852-5.115 2.305-8.914 4.38-12.692 6.898-.988.66-1.822 1.201-1.84 1.201-.02 0-.039-.562-.039-1.24 0-3.681-.734-7.401-2.091-10.54-.136-.31-.254-.601-.235-.62zm20.596 4.068c.058.057-.193 1.629-.426 2.559-.698 2.887-2.576 7.17-4.88 11.2-.409.716-.778 1.297-.817 1.316-.038.02-.558-.273-1.16-.622-2.247-1.318-4.806-2.555-7.596-3.718-.775-.33-1.454-.601-1.473-.641-.136-.115 6.104-4.242 9.397-6.219 2.617-1.589 6.879-3.952 6.955-3.875zm1.475.233c.174 0 3.7.968 5.54 1.511 4.554 1.356 9.784 3.275 13.194 4.825l1.414.638-.986.233c-8.33 1.918-15.463 4.129-22.342 6.918-.562.233-1.066.425-1.104.425-.039 0 .157-.444.409-.986 2.073-4.399 3.408-8.991 3.738-12.906.019-.368.079-.658.137-.658zm-35.11 8.06c.058-.058 2.751.582 4.205.989 2.21.62 6.899 2.19 6.899 2.304 0 .02-.525.466-1.145 1.008-2.538 2.112-4.98 4.341-7.906 7.17-.871.833-1.606 1.51-1.645 1.51-.04 0-.059-.115-.04-.27.445-3.255.35-7.44-.27-11.683-.06-.543-.117-1.009-.098-1.028zm56.596.059c.038.039-1.24 2.052-2.055 3.195-1.162 1.667-2.867 3.877-6.722 8.72a1289.46 1289.46 0 0 0-5.076 6.413c-.775.969-1.415 1.783-1.436 1.783-.018 0-.27-.35-.541-.775-2.17-3.256-4.767-6.103-7.848-8.66a44.534 44.534 0 0 0-1.431-1.164c-.214-.155-.39-.31-.39-.33 0-.057 3.294-1.472 5.794-2.479 4.38-1.783 10.345-3.913 14.822-5.29 2.344-.735 4.844-1.452 4.883-1.413zm1.492.387c.077-.02.543.214 1.104.543 4.709 2.693 9.32 6.162 12.963 9.726 1.027 1.008 3.564 3.641 3.525 3.66 0 0-.891.08-1.937.157-8.157.62-18.6 2.343-28.635 4.765-.68.155-1.28.291-1.319.291-.038 0 .716-.756 1.666-1.666 5.89-5.677 8.583-9.261 11.76-15.656.446-.948.834-1.762.873-1.82zm-43.148 4.418c.27.058 2.788 1.239 4.687 2.189 1.744.871 4.361 2.266 4.496 2.383.02.019-.91.503-2.054 1.066a135.033 135.033 0 0 0-10.018 5.522c-.93.562-1.704 1.027-1.723 1.027-.078 0-.058-.078.465-1.027 1.744-3.177 3.14-6.975 3.934-10.676.077-.29.155-.484.213-.484zm-2.52.464c.058.058-.6 2.442-1.008 3.74-.795 2.46-2.131 5.54-3.43 7.866-.31.542-.775 1.338-1.027 1.783l-.484.774-1.084-1.045c-1.26-1.22-2.287-1.978-3.604-2.657-.524-.27-.93-.502-.93-.54 0-.156 3.314-3.159 5.852-5.329 1.82-1.57 5.657-4.65 5.715-4.592zm15.404 6.336.95.62c2.17 1.414 4.726 3.295 6.683 4.94 1.104.91 3.235 2.83 3.662 3.294l.233.252-1.57.447c-8.874 2.46-15.733 4.649-23.735 7.594-.892.33-1.647.6-1.705.6-.116 0-.213.096 1.783-1.745 5.115-4.707 9.65-9.898 13.022-14.955zm-4.05 1.008c.04.04-2.614 3.777-4.203 5.889-1.9 2.519-5.272 6.743-7.598 9.494-.968 1.144-1.8 2.092-1.84 2.111-.058.02-.078-.27-.078-.716 0-2.344-.599-4.844-1.645-6.975-.446-.891-.523-1.104-.425-1.201.368-.33 6.004-3.545 9.568-5.463 2.404-1.28 6.163-3.177 6.22-3.139zM44.1 55.26c.057 0 .502.233 1.007.504a21.28 21.28 0 0 1 3.332 2.248c.04.038-.464.446-1.123.93-1.84 1.317-4.63 3.43-6.258 4.728-1.705 1.356-1.763 1.394-1.57 1.104 1.28-1.957 1.92-3.062 2.598-4.477a36.066 36.066 0 0 0 1.627-4.05c.155-.56.347-.987.386-.987zm6.53 5.113c.097-.018.213.157.735.932 1.104 1.647 1.957 3.857 2.17 5.639l.039.386-2.654 1.028c-4.747 1.84-9.126 3.662-12.09 5.02a217.067 217.067 0 0 0-3.237 1.548c-.95.484-1.724.853-1.724.834 0-.02.6-.465 1.336-1.008 5.794-4.204 10.813-8.816 14.572-13.427.407-.484.775-.93.813-.95zm-3.003.737v.002c.078.077-2.132 2.576-3.643 4.107-3.74 3.816-7.441 6.801-12.033 9.707-.582.368-1.104.697-1.162.735-.135.078.038-.116 2.054-2.305a52.694 52.694 0 0 0 3.352-3.97c.736-.95.871-1.086 1.937-1.84 2.85-2.056 9.418-6.513 9.495-6.436zm25.974 2.3c.274 1.057.78 6.126.918 9.481.04.795.019 1.318-.021 1.318-.154 0-3.273-1.84-5.5-3.236-1.93-1.215-5.579-3.634-6.18-4.113a358.495 358.495 0 0 1 10.783-3.45zm-12.867 4.192c.254.11.635.32 1.404.795 3.991 2.5 9.418 5.522 11.743 6.53.716.31.793.193-.854 1.318-3.526 2.402-7.924 4.765-13.31 7.148-.95.426-1.745.756-1.764.756-.04 0 .077-.486.232-1.067 1.297-4.825 2.036-9.705 2.075-13.619.01-.977.014-1.46.039-1.707l.435-.154zm-2.965 1.055c.094.476.021 4.368-.127 5.494a49.361 49.361 0 0 1-1.78 8.428c-.214.717-.41 1.319-.448 1.357-.078.097-2.732-2.5-3.604-3.508-1.51-1.744-2.692-3.486-3.564-5.191-.404-.79-.987-2.205-1.055-2.518a345.346 345.346 0 0 1 8.592-3.355c.617-.232 1.343-.473 1.986-.707zm-12.603 4.9c.047.069.163.327.271.652.62 1.685 2.013 4.165 3.215 5.754 1.318 1.744 3.043 3.605 4.477 4.825.465.387.89.756.949.814.116.117.155.097-3.004 1.299-3.66 1.395-7.652 2.79-12.225 4.262a609.84 609.84 0 0 0-3.275 1.066c-.175.058-.114-.04.389-.834 2.267-3.544 5.714-10.5 7.652-15.422.33-.853.659-1.706.717-1.9.027-.095.066-.15.103-.211l.73-.305zm-4.01 1.7c-.132.39-.973 2.151-1.842 3.853-1.88 3.663-3.933 7.267-6.684 11.646-.466.755-.91 1.453-.97 1.53-.096.136-.135.098-.446-.502-.659-1.3-1.2-2.965-1.492-4.496-.29-1.511-.232-4.146.098-5.774.15-.717.216-.987.36-1.16a225.041 225.041 0 0 1 10.976-5.098zm33.479 1.2v.813c0 4.321-.465 10.25-1.143 14.57-.116.756-.213 1.377-.232 1.397 0 0-.563-.156-1.221-.35a49.985 49.985 0 0 1-8.912-3.816c-1.88-1.027-4.61-2.714-4.533-2.791.019-.02.832-.445 1.78-.95 3.799-1.975 7.441-4.107 10.6-6.22 1.182-.794 2.963-2.071 3.35-2.42zm-48.048 5.737c.074.004.052.163-.062.851a27.507 27.507 0 0 0-.213 2.07c-.155 2.83.31 4.925 1.705 7.792.388.794.698 1.453.678 1.472-.135.117-12.962 3.875-16.992 4.979-1.201.33-2.247.62-2.325.639-.136.04-.155.021-.097-.309.446-2.848 2.617-6.568 5.64-9.707 2.014-2.093 3.622-3.314 6.373-4.883.921-.524 2.066-1.163 3.057-1.71.737-.401 1.484-.799 2.236-1.194zm30.221 5.404h.002c.02-.02.483.232 1.045.56 4.147 2.404 9.921 4.633 14.842 5.776l.445.096-.619.35c-2.576 1.433-11.045 4.96-19.705 8.195-1.26.465-2.498.93-2.73 1.027-.233.097-.448.155-.448.135 0-.02.35-.698.795-1.531 2.422-4.534 4.863-10.055 6.104-13.891.155-.368.25-.697.27-.717zm-3.08 1.006h.002c.02.02-.136.428-.33.893-1.686 4.088-3.895 8.545-6.724 13.543-.716 1.28-1.317 2.306-1.336 2.306-.02 0-.601-.35-1.3-.775-4.106-2.52-7.75-5.62-10.132-8.623l-.35-.426 1.764-.484c6.316-1.724 11.684-3.584 17.012-5.87.756-.31 1.375-.564 1.394-.564zm19.143 6.686c.02.446-.967 4.437-1.781 7.324-.678 2.422-1.26 4.32-2.327 7.672-.464 1.474-.87 2.693-.89 2.693-.02 0-.135-.018-.252-.056-5.754-1.047-10.908-2.501-15.752-4.438-1.356-.543-3.293-1.415-3.41-1.512-.038-.039 1.124-.581 2.597-1.22 8.816-3.856 17.96-8.235 21.1-10.114.368-.233.657-.35.715-.35zM28.677 96.8c.04.04-2.423 3.585-5.87 8.41-1.203 1.686-2.597 3.661-3.12 4.397a77.468 77.468 0 0 0-1.764 2.596l-.814 1.261-.871-.738c-1.027-.853-2.809-2.673-3.604-3.68-1.666-2.073-2.791-4.264-3.236-6.26-.214-.93-.214-1.394-.02-1.45a1459.308 1459.308 0 0 1 10.31-2.424 861.655 861.655 0 0 0 6.935-1.627c1.124-.271 2.035-.485 2.054-.485zm2.479.95.621.697c2.79 3.12 5.637 5.425 9.086 7.44.62.35 1.086.659 1.047.679-.135.096-11.974 4.3-17.457 6.2a462.503 462.503 0 0 1-5.639 1.956c-.019 0-.194-.117-.387-.252l-.35-.252.563-.814c1.82-2.635 4.107-5.521 9.086-11.528zm15.463 11.062c.019-.02.87.29 1.918.68 2.519.949 4.513 1.55 7.187 2.228 3.294.833 8.061 1.646 10.872 1.88.426.037.657.076.58.134-.136.077-2.985 1.028-5.077 1.686-3.333 1.047-13.504 4.05-21.797 6.433a218.736 218.736 0 0 1-2.925.834c-.194.038-.834-.138-.834-.215 0-.038.465-.638 1.027-1.297 2.79-3.333 5.561-7.054 7.867-10.58.64-.969 1.182-1.764 1.182-1.783zm-3.412.098h.002c.019.02-1.357 2.227-3.76 6.025-1.026 1.608-2.17 3.432-2.576 4.07-.388.62-.971 1.59-1.3 2.131l-.56.987-.29-.076c-.699-.195-5.601-1.919-6.9-2.442a48.226 48.226 0 0 1-4.513-2.072c-1.55-.834-3.487-2.074-3.332-2.113.038-.02 2.692-.736 5.889-1.608 8.485-2.306 13.194-3.642 16.275-4.611.562-.175 1.046-.311 1.065-.291zm24.123 5.656h.021c.077.195-3.063 8.913-4.207 11.664-.25.62-.348.776-.484.756-.33-.02-4.881-.657-7.652-1.064-4.824-.736-12.925-2.15-14.958-2.616l-.464-.097 2.886-.659c6.2-1.395 9.184-2.15 12.207-3.08a86.251 86.251 0 0 0 11.413-4.4c.6-.27 1.102-.483 1.238-.502z" fill="#ffffff"/></g>
  <path d="M0 34 L0 0 L96 0" stroke="#e9e9e9" stroke-width="2" fill="none"/>
  <path d="M96 0 L96 34 L0 34" stroke="#33333f" stroke-width="2" fill="none"/>
  <text x="40" y="20" font-family="'Courier New',monospace" font-size="8" font-weight="bold" fill="#eaeaea" letter-spacing="0.3">MS SQL</text>
</g>
<g transform="translate(230,306)">
  <rect width="96" height="34" fill="#0b0b14"/>
  <rect x="3" y="3" width="30" height="28" fill="#47A248"/><rect x="3" y="3" width="30" height="6" fill="#ffffff" fill-opacity="0.22"/><g transform="translate(9.0,8.0) scale(0.7500)"><path d="M17.193 9.555c-1.264-5.58-4.252-7.414-4.573-8.115-.28-.394-.53-.954-.735-1.44-.036.495-.055.685-.523 1.184-.723.566-4.438 3.682-4.74 10.02-.282 5.912 4.27 9.435 4.888 9.884l.07.05A73.49 73.49 0 0111.91 24h.481c.114-1.032.284-2.056.51-3.07.417-.296.604-.463.85-.693a11.342 11.342 0 003.639-8.464c.01-.814-.103-1.662-.197-2.218zm-5.336 8.195s0-8.291.275-8.29c.213 0 .49 10.695.49 10.695-.381-.045-.765-1.76-.765-2.405z" fill="#ffffff"/></g>
  <path d="M0 34 L0 0 L96 0" stroke="#e9e9e9" stroke-width="2" fill="none"/>
  <path d="M96 0 L96 34 L0 34" stroke="#33333f" stroke-width="2" fill="none"/>
  <text x="40" y="20" font-family="'Courier New',monospace" font-size="8" font-weight="bold" fill="#eaeaea" letter-spacing="0.3">MONGODB</text>
</g>
<g transform="translate(336,306)">
  <rect width="96" height="34" fill="#0b0b14"/>
  <rect x="3" y="3" width="30" height="28" fill="#2D8FD0"/><rect x="3" y="3" width="30" height="6" fill="#ffffff" fill-opacity="0.22"/><g transform="translate(9.0,8.0) scale(0.7500)"><path d="M21.678.521c-1.032-.92-2.28-.55-3.513.544a8.71 8.71 0 0 0-.547.535c-2.109 2.237-4.066 6.38-4.674 9.544.237.48.422 1.093.544 1.561a13.044 13.044 0 0 1 .164.703s-.019-.071-.096-.296l-.05-.146a1.689 1.689 0 0 0-.033-.08c-.138-.32-.518-.995-.686-1.289-.143.423-.27.818-.376 1.176.484.884.778 2.4.778 2.4s-.025-.099-.147-.442c-.107-.303-.644-1.244-.772-1.464-.217.804-.304 1.346-.226 1.478.152.256.296.698.422 1.186.286 1.1.485 2.44.485 2.44l.017.224a22.41 22.41 0 0 0 .056 2.748c.095 1.146.273 2.13.5 2.657l.155-.084c-.334-1.038-.47-2.399-.41-3.967.09-2.398.642-5.29 1.661-8.304 1.723-4.55 4.113-8.201 6.3-9.945-1.993 1.8-4.692 7.63-5.5 9.788-.904 2.416-1.545 4.684-1.931 6.857.666-2.037 2.821-2.912 2.821-2.912s1.057-1.304 2.292-3.166c-.74.169-1.955.458-2.362.629-.6.251-.762.337-.762.337s1.945-1.184 3.613-1.72C21.695 7.9 24.195 2.767 21.678.521m-18.573.543A1.842 1.842 0 0 0 1.27 2.9v16.608a1.84 1.84 0 0 0 1.835 1.834h9.418a22.953 22.953 0 0 1-.052-2.707c-.006-.062-.011-.141-.016-.2a27.01 27.01 0 0 0-.473-2.378c-.121-.47-.275-.898-.369-1.057-.116-.197-.098-.31-.097-.432 0-.12.015-.245.037-.386a9.98 9.98 0 0 1 .234-1.045l.217-.028c-.017-.035-.014-.065-.031-.097l-.041-.381a32.8 32.8 0 0 1 .382-1.194l.2-.019c-.008-.016-.01-.038-.018-.053l-.043-.316c.63-3.28 2.587-7.443 4.8-9.791.066-.069.133-.128.198-.194Z" fill="#ffffff"/></g>
  <path d="M0 34 L0 0 L96 0" stroke="#e9e9e9" stroke-width="2" fill="none"/>
  <path d="M96 0 L96 34 L0 34" stroke="#33333f" stroke-width="2" fill="none"/>
  <text x="40" y="20" font-family="'Courier New',monospace" font-size="8" font-weight="bold" fill="#eaeaea" letter-spacing="0.3">SQLITE</text>
</g>
<g transform="translate(442,306)">
  <rect width="96" height="34" fill="#0b0b14"/>
  <rect x="3" y="3" width="30" height="28" fill="#3FCF8E"/><rect x="3" y="3" width="30" height="6" fill="#ffffff" fill-opacity="0.22"/><g transform="translate(9.0,8.0) scale(0.7500)"><path d="M11.9 1.036c-.015-.986-1.26-1.41-1.874-.637L.764 12.05C-.33 13.427.65 15.455 2.409 15.455h9.579l.113 7.51c.014.985 1.259 1.408 1.873.636l9.262-11.653c1.093-1.375.113-3.403-1.645-3.403h-9.642z" fill="#111111"/></g>
  <path d="M0 34 L0 0 L96 0" stroke="#e9e9e9" stroke-width="2" fill="none"/>
  <path d="M96 0 L96 34 L0 34" stroke="#33333f" stroke-width="2" fill="none"/>
  <text x="40" y="20" font-family="'Courier New',monospace" font-size="8" font-weight="bold" fill="#eaeaea" letter-spacing="0.3">SUPABASE</text>
</g>
<g transform="translate(18,362)">
  <rect width="198" height="20" fill="#000080"/>
  <rect width="198" height="20" fill="none" stroke="#c0c0c0" stroke-width="2"/>
  <text x="11" y="14" font-family="'Courier New',monospace" font-size="11" font-weight="bold" fill="#33ff99">CLOUD / DEVOPS / TOOLS</text>
</g>
<g transform="translate(18,390)">
  <rect width="96" height="34" fill="#0b0b14"/>
  <rect x="3" y="3" width="30" height="28" fill="#2496ED"/><rect x="3" y="3" width="30" height="6" fill="#ffffff" fill-opacity="0.22"/><g transform="translate(9.0,8.0) scale(0.7500)"><path d="M13.983 11.078h2.119a.186.186 0 00.186-.185V9.006a.186.186 0 00-.186-.186h-2.119a.185.185 0 00-.185.185v1.888c0 .102.083.185.185.185m-2.954-5.43h2.118a.186.186 0 00.186-.186V3.574a.186.186 0 00-.186-.185h-2.118a.185.185 0 00-.185.185v1.888c0 .102.082.185.185.185m0 2.716h2.118a.187.187 0 00.186-.186V6.29a.186.186 0 00-.186-.185h-2.118a.185.185 0 00-.185.185v1.887c0 .102.082.185.185.186m-2.93 0h2.12a.186.186 0 00.184-.186V6.29a.185.185 0 00-.185-.185H8.1a.185.185 0 00-.185.185v1.887c0 .102.083.185.185.186m-2.964 0h2.119a.186.186 0 00.185-.186V6.29a.185.185 0 00-.185-.185H5.136a.186.186 0 00-.186.185v1.887c0 .102.084.185.186.186m5.893 2.715h2.118a.186.186 0 00.186-.185V9.006a.186.186 0 00-.186-.186h-2.118a.185.185 0 00-.185.185v1.888c0 .102.082.185.185.185m-2.93 0h2.12a.185.185 0 00.184-.185V9.006a.185.185 0 00-.184-.186h-2.12a.185.185 0 00-.184.185v1.888c0 .102.083.185.185.185m-2.964 0h2.119a.185.185 0 00.185-.185V9.006a.185.185 0 00-.184-.186h-2.12a.186.186 0 00-.186.186v1.887c0 .102.084.185.186.185m-2.92 0h2.12a.185.185 0 00.184-.185V9.006a.185.185 0 00-.184-.186h-2.12a.185.185 0 00-.184.185v1.888c0 .102.082.185.185.185M23.763 9.89c-.065-.051-.672-.51-1.954-.51-.338.001-.676.03-1.01.087-.248-1.7-1.653-2.53-1.716-2.566l-.344-.199-.226.327c-.284.438-.49.922-.612 1.43-.23.97-.09 1.882.403 2.661-.595.332-1.55.413-1.744.42H.751a.751.751 0 00-.75.748 11.376 11.376 0 00.692 4.062c.545 1.428 1.355 2.48 2.41 3.124 1.18.723 3.1 1.137 5.275 1.137.983.003 1.963-.086 2.93-.266a12.248 12.248 0 003.823-1.389c.98-.567 1.86-1.288 2.61-2.136 1.252-1.418 1.998-2.997 2.553-4.4h.221c1.372 0 2.215-.549 2.68-1.009.309-.293.55-.65.707-1.046l.098-.288Z" fill="#ffffff"/></g>
  <path d="M0 34 L0 0 L96 0" stroke="#e9e9e9" stroke-width="2" fill="none"/>
  <path d="M96 0 L96 34 L0 34" stroke="#33333f" stroke-width="2" fill="none"/>
  <text x="40" y="20" font-family="'Courier New',monospace" font-size="8" font-weight="bold" fill="#eaeaea" letter-spacing="0.3">DOCKER</text>
</g>
<g transform="translate(124,390)">
  <rect width="96" height="34" fill="#0b0b14"/>
  <rect x="3" y="3" width="30" height="28" fill="#F38020"/><rect x="3" y="3" width="30" height="6" fill="#ffffff" fill-opacity="0.22"/><g transform="translate(9.0,8.0) scale(0.7500)"><path d="M16.5088 16.8447c.1475-.5068.0908-.9707-.1553-1.3154-.2246-.3164-.6045-.499-1.0615-.5205l-8.6592-.1123a.1559.1559 0 0 1-.1333-.0713c-.0283-.042-.0351-.0986-.021-.1553.0278-.084.1123-.1484.2036-.1562l8.7359-.1123c1.0351-.0489 2.1601-.8868 2.5537-1.9136l.499-1.3013c.0215-.0561.0293-.1128.0147-.168-.5625-2.5463-2.835-4.4453-5.5499-4.4453-2.5039 0-4.6284 1.6177-5.3876 3.8614-.4927-.3658-1.1187-.5625-1.794-.499-1.2026.119-2.1665 1.083-2.2861 2.2856-.0283.31-.0069.6128.0635.894C1.5683 13.171 0 14.7754 0 16.752c0 .1748.0142.3515.0352.5273.0141.083.0844.1475.1689.1475h15.9814c.0909 0 .1758-.0645.2032-.1553l.12-.4268zm2.7568-5.5634c-.0771 0-.1611 0-.2383.0112-.0566 0-.1054.0415-.127.0976l-.3378 1.1744c-.1475.5068-.0918.9707.1543 1.3164.2256.3164.6055.498 1.0625.5195l1.8437.1133c.0557 0 .1055.0263.1329.0703.0283.043.0351.1074.0214.1562-.0283.084-.1132.1485-.204.1553l-1.921.1123c-1.041.0488-2.1582.8867-2.5527 1.914l-.1406.3585c-.0283.0713.0215.1416.0986.1416h6.5977c.0771 0 .1474-.0489.169-.126.1122-.4082.1757-.837.1757-1.2803 0-2.6025-2.125-4.727-4.7344-4.727" fill="#111111"/></g>
  <path d="M0 34 L0 0 L96 0" stroke="#e9e9e9" stroke-width="2" fill="none"/>
  <path d="M96 0 L96 34 L0 34" stroke="#33333f" stroke-width="2" fill="none"/>
  <text x="40" y="20" font-family="'Courier New',monospace" font-size="8" font-weight="bold" fill="#eaeaea" letter-spacing="0.3">CLOUDFLARE</text>
</g>
<g transform="translate(230,390)">
  <rect width="96" height="34" fill="#0b0b14"/>
  <rect x="3" y="3" width="30" height="28" fill="#9AA0A6"/><rect x="3" y="3" width="30" height="6" fill="#ffffff" fill-opacity="0.22"/><g transform="translate(9.0,8.0) scale(0.7500)"><path d="m12 1.608 12 20.784H0Z" fill="#111111"/></g>
  <path d="M0 34 L0 0 L96 0" stroke="#e9e9e9" stroke-width="2" fill="none"/>
  <path d="M96 0 L96 34 L0 34" stroke="#33333f" stroke-width="2" fill="none"/>
  <text x="40" y="20" font-family="'Courier New',monospace" font-size="8" font-weight="bold" fill="#eaeaea" letter-spacing="0.3">VERCEL</text>
</g>
<g transform="translate(336,390)">
  <rect width="96" height="34" fill="#0b0b14"/>
  <rect x="3" y="3" width="30" height="28" fill="#FFCA28"/><rect x="3" y="3" width="30" height="6" fill="#ffffff" fill-opacity="0.22"/><g transform="translate(9.0,8.0) scale(0.7500)"><path d="M19.455 8.369c-.538-.748-1.778-2.285-3.681-4.569-.826-.991-1.535-1.832-1.884-2.245a146 146 0 0 0-.488-.576l-.207-.245-.113-.133-.022-.032-.01-.005L12.57 0l-.609.488c-1.555 1.246-2.828 2.851-3.681 4.64-.523 1.064-.864 2.105-1.043 3.176-.047.241-.088.489-.121.738-.209-.017-.421-.028-.632-.033-.018-.001-.035-.002-.059-.003a7.46 7.46 0 0 0-2.28.274l-.317.089-.163.286c-.765 1.342-1.198 2.869-1.252 4.416-.07 2.01.477 3.954 1.583 5.625 1.082 1.633 2.61 2.882 4.42 3.611l.236.095.071.025.003-.001a9.59 9.59 0 0 0 2.941.568q.171.006.342.006c1.273 0 2.513-.249 3.69-.742l.008.004.313-.145a9.63 9.63 0 0 0 3.927-3.335c1.01-1.49 1.577-3.234 1.641-5.042.075-2.161-.643-4.304-2.133-6.371m-7.083 6.695c.328 1.244.264 2.44-.191 3.558-1.135-1.12-1.967-2.352-2.475-3.665-.543-1.404-.87-2.74-.974-3.975.48.157.922.366 1.315.622 1.132.737 1.914 1.902 2.325 3.461zm.207 6.022c.482.368.99.712 1.513 1.028-.771.21-1.565.302-2.369.273a8 8 0 0 1-.373-.022c.458-.394.869-.823 1.228-1.279zm1.347-6.431c-.516-1.957-1.527-3.437-3.002-4.398-.647-.421-1.385-.741-2.194-.95.011-.134.026-.268.043-.4.014-.113.03-.216.046-.313.133-.689.332-1.37.589-2.025.099-.25.206-.499.321-.74l.004-.008c.177-.358.376-.719.61-1.105l.092-.152-.003-.001c.544-.851 1.197-1.627 1.942-2.311l.288.341c.672.796 1.304 1.548 1.878 2.237 1.291 1.549 2.966 3.583 3.612 4.48 1.277 1.771 1.893 3.579 1.83 5.375-.049 1.395-.461 2.755-1.195 3.933-.694 1.116-1.661 2.05-2.8 2.708-.636-.318-1.559-.839-2.539-1.599.79-1.575.952-3.28.479-5.072zm-2.575 5.397c-.725.939-1.587 1.55-2.09 1.856-.081-.029-.163-.06-.243-.093l-.065-.026c-1.49-.616-2.747-1.656-3.635-3.01-.907-1.384-1.356-2.993-1.298-4.653.041-1.19.338-2.327.882-3.379.316-.07.638-.114.96-.131l.084-.002c.162-.003.324-.003.478 0 .227.011.454.035.677.07.073 1.513.445 3.145 1.105 4.852.637 1.644 1.694 3.162 3.144 4.515z" fill="#111111"/></g>
  <path d="M0 34 L0 0 L96 0" stroke="#e9e9e9" stroke-width="2" fill="none"/>
  <path d="M96 0 L96 34 L0 34" stroke="#33333f" stroke-width="2" fill="none"/>
  <text x="40" y="20" font-family="'Courier New',monospace" font-size="8" font-weight="bold" fill="#eaeaea" letter-spacing="0.3">FIREBASE</text>
</g>
<g transform="translate(442,390)">
  <rect width="96" height="34" fill="#0b0b14"/>
  <rect x="3" y="3" width="30" height="28" fill="#2088FF"/><rect x="3" y="3" width="30" height="6" fill="#ffffff" fill-opacity="0.22"/><g transform="translate(9.0,8.0) scale(0.7500)"><path d="M10.984 13.836a.5.5 0 0 1-.353-.146l-.745-.743a.5.5 0 1 1 .706-.708l.392.391 1.181-1.18a.5.5 0 0 1 .708.707l-1.535 1.533a.504.504 0 0 1-.354.146zm9.353-.147l1.534-1.532a.5.5 0 0 0-.707-.707l-1.181 1.18-.392-.391a.5.5 0 1 0-.706.708l.746.743a.497.497 0 0 0 .706-.001zM4.527 7.452l2.557-1.585A1 1 0 0 0 7.09 4.17L4.533 2.56A1 1 0 0 0 3 3.406v3.196a1.001 1.001 0 0 0 1.527.85zm2.03-2.436L4 6.602V3.406l2.557 1.61zM24 12.5c0 1.93-1.57 3.5-3.5 3.5a3.503 3.503 0 0 1-3.46-3h-2.08a3.503 3.503 0 0 1-3.46 3 3.502 3.502 0 0 1-3.46-3h-.558c-.972 0-1.85-.399-2.482-1.042V17c0 1.654 1.346 3 3 3h.04c.244-1.693 1.7-3 3.46-3 1.93 0 3.5 1.57 3.5 3.5S13.43 24 11.5 24a3.502 3.502 0 0 1-3.46-3H8c-2.206 0-4-1.794-4-4V9.899A5.008 5.008 0 0 1 0 5c0-2.757 2.243-5 5-5s5 2.243 5 5a5.005 5.005 0 0 1-4.952 4.998A2.482 2.482 0 0 0 7.482 12h.558c.244-1.693 1.7-3 3.46-3a3.502 3.502 0 0 1 3.46 3h2.08a3.503 3.503 0 0 1 3.46-3c1.93 0 3.5 1.57 3.5 3.5zm-15 8c0 1.378 1.122 2.5 2.5 2.5s2.5-1.122 2.5-2.5-1.122-2.5-2.5-2.5S9 19.122 9 20.5zM5 9c2.206 0 4-1.794 4-4S7.206 1 5 1 1 2.794 1 5s1.794 4 4 4zm9 3.5c0-1.378-1.122-2.5-2.5-2.5S9 11.122 9 12.5s1.122 2.5 2.5 2.5 2.5-1.122 2.5-2.5zm9 0c0-1.378-1.122-2.5-2.5-2.5S18 11.122 18 12.5s1.122 2.5 2.5 2.5 2.5-1.122 2.5-2.5zm-13 8a.5.5 0 1 0 1 0 .5.5 0 0 0-1 0zm2 0a.5.5 0 1 0 1 0 .5.5 0 0 0-1 0zm12 0c0 1.93-1.57 3.5-3.5 3.5a3.503 3.503 0 0 1-3.46-3.002c-.007.001-.013.005-.021.005l-.506.017h-.017a.5.5 0 0 1-.016-.999l.506-.017c.018-.002.035.006.052.007A3.503 3.503 0 0 1 20.5 17c1.93 0 3.5 1.57 3.5 3.5zm-1 0c0-1.378-1.122-2.5-2.5-2.5S18 19.122 18 20.5s1.122 2.5 2.5 2.5 2.5-1.122 2.5-2.5z" fill="#ffffff"/></g>
  <path d="M0 34 L0 0 L96 0" stroke="#e9e9e9" stroke-width="2" fill="none"/>
  <path d="M96 0 L96 34 L0 34" stroke="#33333f" stroke-width="2" fill="none"/>
  <text x="40" y="20" font-family="'Courier New',monospace" font-size="8" font-weight="bold" fill="#eaeaea" letter-spacing="0.3">ACTIONS</text>
</g>
<g transform="translate(548,390)">
  <rect width="96" height="34" fill="#0b0b14"/>
  <rect x="3" y="3" width="30" height="28" fill="#009639"/><rect x="3" y="3" width="30" height="6" fill="#ffffff" fill-opacity="0.22"/><g transform="translate(9.0,8.0) scale(0.7500)"><path d="M12 0L1.605 6v12L12 24l10.395-6V6L12 0zm6 16.59c0 .705-.646 1.29-1.529 1.29-.631 0-1.351-.255-1.801-.81l-6-7.141v6.66c0 .721-.57 1.29-1.274 1.29H7.32c-.721 0-1.29-.6-1.29-1.29V7.41c0-.705.63-1.29 1.5-1.29.646 0 1.38.255 1.83.81l5.97 7.141V7.41c0-.721.6-1.29 1.29-1.29h.075c.72 0 1.29.6 1.29 1.29v9.18H18z" fill="#ffffff"/></g>
  <path d="M0 34 L0 0 L96 0" stroke="#e9e9e9" stroke-width="2" fill="none"/>
  <path d="M96 0 L96 34 L0 34" stroke="#33333f" stroke-width="2" fill="none"/>
  <text x="40" y="20" font-family="'Courier New',monospace" font-size="8" font-weight="bold" fill="#eaeaea" letter-spacing="0.3">NGINX</text>
</g>
<g transform="translate(18,436)">
  <rect width="96" height="34" fill="#0b0b14"/>
  <rect x="3" y="3" width="30" height="28" fill="#FCC624"/><rect x="3" y="3" width="30" height="6" fill="#ffffff" fill-opacity="0.22"/><g transform="translate(9.0,8.0) scale(0.7500)"><path d="M12.504 0c-.155 0-.315.008-.48.021-4.226.333-3.105 4.807-3.17 6.298-.076 1.092-.3 1.953-1.05 3.02-.885 1.051-2.127 2.75-2.716 4.521-.278.832-.41 1.684-.287 2.489a.424.424 0 00-.11.135c-.26.268-.45.6-.663.839-.199.199-.485.267-.797.4-.313.136-.658.269-.864.68-.09.189-.136.394-.132.602 0 .199.027.4.055.536.058.399.116.728.04.97-.249.68-.28 1.145-.106 1.484.174.334.535.47.94.601.81.2 1.91.135 2.774.6.926.466 1.866.67 2.616.47.526-.116.97-.464 1.208-.946.587-.003 1.23-.269 2.26-.334.699-.058 1.574.267 2.577.2.025.134.063.198.114.333l.003.003c.391.778 1.113 1.132 1.884 1.071.771-.06 1.592-.536 2.257-1.306.631-.765 1.683-1.084 2.378-1.503.348-.199.629-.469.649-.853.023-.4-.2-.811-.714-1.376v-.097l-.003-.003c-.17-.2-.25-.535-.338-.926-.085-.401-.182-.786-.492-1.046h-.003c-.059-.054-.123-.067-.188-.135a.357.357 0 00-.19-.064c.431-1.278.264-2.55-.173-3.694-.533-1.41-1.465-2.638-2.175-3.483-.796-1.005-1.576-1.957-1.56-3.368.026-2.152.236-6.133-3.544-6.139zm.529 3.405h.013c.213 0 .396.062.584.198.19.135.33.332.438.533.105.259.158.459.166.724 0-.02.006-.04.006-.06v.105a.086.086 0 01-.004-.021l-.004-.024a1.807 1.807 0 01-.15.706.953.953 0 01-.213.335.71.71 0 00-.088-.042c-.104-.045-.198-.064-.284-.133a1.312 1.312 0 00-.22-.066c.05-.06.146-.133.183-.198.053-.128.082-.264.088-.402v-.02a1.21 1.21 0 00-.061-.4c-.045-.134-.101-.2-.183-.333-.084-.066-.167-.132-.267-.132h-.016c-.093 0-.176.03-.262.132a.8.8 0 00-.205.334 1.18 1.18 0 00-.09.4v.019c.002.089.008.179.02.267-.193-.067-.438-.135-.607-.202a1.635 1.635 0 01-.018-.2v-.02a1.772 1.772 0 01.15-.768c.082-.22.232-.406.43-.533a.985.985 0 01.594-.2zm-2.962.059h.036c.142 0 .27.048.399.135.146.129.264.288.344.465.09.199.14.4.153.667v.004c.007.134.006.2-.002.266v.08c-.03.007-.056.018-.083.024-.152.055-.274.135-.393.2.012-.09.013-.18.003-.267v-.015c-.012-.133-.04-.2-.082-.333a.613.613 0 00-.166-.267.248.248 0 00-.183-.064h-.021c-.071.006-.13.04-.186.132a.552.552 0 00-.12.27.944.944 0 00-.023.33v.015c.012.135.037.2.08.334.046.134.098.2.166.268.01.009.02.018.034.024-.07.057-.117.07-.176.136a.304.304 0 01-.131.068 2.62 2.62 0 01-.275-.402 1.772 1.772 0 01-.155-.667 1.759 1.759 0 01.08-.668 1.43 1.43 0 01.283-.535c.128-.133.26-.2.418-.2zm1.37 1.706c.332 0 .733.065 1.216.399.293.2.523.269 1.052.468h.003c.255.136.405.266.478.399v-.131a.571.571 0 01.016.47c-.123.31-.516.643-1.063.842v.002c-.268.135-.501.333-.775.465-.276.135-.588.292-1.012.267a1.139 1.139 0 01-.448-.067 3.566 3.566 0 01-.322-.198c-.195-.135-.363-.332-.612-.465v-.005h-.005c-.4-.246-.616-.512-.686-.71-.07-.268-.005-.47.193-.6.224-.135.38-.271.483-.336.104-.074.143-.102.176-.131h.002v-.003c.169-.202.436-.47.839-.601.139-.036.294-.065.466-.065zm2.8 2.142c.358 1.417 1.196 3.475 1.735 4.473.286.534.855 1.659 1.102 3.024.156-.005.33.018.513.064.646-1.671-.546-3.467-1.089-3.966-.22-.2-.232-.335-.123-.335.59.534 1.365 1.572 1.646 2.757.13.535.16 1.104.021 1.67.067.028.135.06.205.067 1.032.534 1.413.938 1.23 1.537v-.043c-.06-.003-.12 0-.18 0h-.016c.151-.467-.182-.825-1.065-1.224-.915-.4-1.646-.336-1.77.465-.008.043-.013.066-.018.135-.068.023-.139.053-.209.064-.43.268-.662.669-.793 1.187-.13.533-.17 1.156-.205 1.869v.003c-.02.334-.17.838-.319 1.35-1.5 1.072-3.58 1.538-5.348.334a2.645 2.645 0 00-.402-.533 1.45 1.45 0 00-.275-.333c.182 0 .338-.03.465-.067a.615.615 0 00.314-.334c.108-.267 0-.697-.345-1.163-.345-.467-.931-.995-1.788-1.521-.63-.4-.986-.87-1.15-1.396-.165-.534-.143-1.085-.015-1.645.245-1.07.873-2.11 1.274-2.763.107-.065.037.135-.408.974-.396.751-1.14 2.497-.122 3.854a8.123 8.123 0 01.647-2.876c.564-1.278 1.743-3.504 1.836-5.268.048.036.217.135.289.202.218.133.38.333.59.465.21.201.477.335.876.335.039.003.075.006.11.006.412 0 .73-.134.997-.268.29-.134.52-.334.74-.4h.005c.467-.135.835-.402 1.044-.7zm2.185 8.958c.037.6.343 1.245.882 1.377.588.134 1.434-.333 1.791-.765l.211-.01c.315-.007.577.01.847.268l.003.003c.208.199.305.53.391.876.085.4.154.78.409 1.066.486.527.645.906.636 1.14l.003-.007v.018l-.003-.012c-.015.262-.185.396-.498.595-.63.401-1.746.712-2.457 1.57-.618.737-1.37 1.14-2.036 1.191-.664.053-1.237-.2-1.574-.898l-.005-.003c-.21-.4-.12-1.025.056-1.69.176-.668.428-1.344.463-1.897.037-.714.076-1.335.195-1.814.12-.465.308-.797.641-.984l.045-.022zm-10.814.049h.01c.053 0 .105.005.157.014.376.055.706.333 1.023.752l.91 1.664.003.003c.243.533.754 1.064 1.189 1.637.434.598.77 1.131.729 1.57v.006c-.057.744-.48 1.148-1.125 1.294-.645.135-1.52.002-2.395-.464-.968-.536-2.118-.469-2.857-.602-.369-.066-.61-.2-.723-.4-.11-.2-.113-.602.123-1.23v-.004l.002-.003c.117-.334.03-.752-.027-1.118-.055-.401-.083-.71.043-.94.16-.334.396-.4.69-.533.294-.135.64-.202.915-.47h.002v-.002c.256-.268.445-.601.668-.838.19-.201.38-.336.663-.336zm7.159-9.074c-.435.201-.945.535-1.488.535-.542 0-.97-.267-1.28-.466-.154-.134-.28-.268-.373-.335-.164-.134-.144-.333-.074-.333.109.016.129.134.199.2.096.066.215.2.36.333.292.2.68.467 1.167.467.485 0 1.053-.267 1.398-.466.195-.135.445-.334.648-.467.156-.136.149-.267.279-.267.128.016.034.134-.147.332a8.097 8.097 0 01-.69.468zm-1.082-1.583V5.64c-.006-.02.013-.042.029-.05.074-.043.18-.027.26.004.063 0 .16.067.15.135-.006.049-.085.066-.135.066-.055 0-.092-.043-.141-.068-.052-.018-.146-.008-.163-.065zm-.551 0c-.02.058-.113.049-.166.066-.047.025-.086.068-.14.068-.05 0-.13-.02-.136-.068-.01-.066.088-.133.15-.133.08-.031.184-.047.259-.005.019.009.036.03.03.05v.02h.003z" fill="#111111"/></g>
  <path d="M0 34 L0 0 L96 0" stroke="#e9e9e9" stroke-width="2" fill="none"/>
  <path d="M96 0 L96 34 L0 34" stroke="#33333f" stroke-width="2" fill="none"/>
  <text x="40" y="20" font-family="'Courier New',monospace" font-size="8" font-weight="bold" fill="#eaeaea" letter-spacing="0.3">LINUX</text>
</g>
<g transform="translate(124,436)">
  <rect width="96" height="34" fill="#0b0b14"/>
  <rect x="3" y="3" width="30" height="28" fill="#FF6C37"/><rect x="3" y="3" width="30" height="6" fill="#ffffff" fill-opacity="0.22"/><g transform="translate(9.0,8.0) scale(0.7500)"><path d="M13.527.099C6.955-.744.942 3.9.099 10.473c-.843 6.572 3.8 12.584 10.373 13.428 6.573.843 12.587-3.801 13.428-10.374C24.744 6.955 20.101.943 13.527.099zm2.471 7.485a.855.855 0 0 0-.593.25l-4.453 4.453-.307-.307-.643-.643c4.389-4.376 5.18-4.418 5.996-3.753zm-4.863 4.861l4.44-4.44a.62.62 0 1 1 .847.903l-4.699 4.125-.588-.588zm.33.694l-1.1.238a.06.06 0 0 1-.067-.032.06.06 0 0 1 .01-.073l.645-.645.512.512zm-2.803-.459l1.172-1.172.879.878-1.979.426a.074.074 0 0 1-.085-.039.072.072 0 0 1 .013-.093zm-3.646 6.058a.076.076 0 0 1-.069-.083.077.077 0 0 1 .022-.046h.002l.946-.946 1.222 1.222-2.123-.147zm2.425-1.256a.228.228 0 0 0-.117.256l.203.865a.125.125 0 0 1-.211.117h-.003l-.934-.934-.294-.295 3.762-3.758 1.82-.393.874.874c-1.255 1.102-2.971 2.201-5.1 3.268zm5.279-3.428h-.002l-.839-.839 4.699-4.125a.952.952 0 0 0 .119-.127c-.148 1.345-2.029 3.245-3.977 5.091zm3.657-6.46l-.003-.002a1.822 1.822 0 0 1 2.459-2.684l-1.61 1.613a.119.119 0 0 0 0 .169l1.247 1.247a1.817 1.817 0 0 1-2.093-.343zm2.578 0a1.714 1.714 0 0 1-.271.218h-.001l-1.207-1.207 1.533-1.533c.661.72.637 1.832-.054 2.522zM18.855 6.05a.143.143 0 0 0-.053.157.416.416 0 0 1-.053.45.14.14 0 0 0 .023.197.141.141 0 0 0 .084.03.14.14 0 0 0 .106-.05.691.691 0 0 0 .087-.751.138.138 0 0 0-.194-.033z" fill="#ffffff"/></g>
  <path d="M0 34 L0 0 L96 0" stroke="#e9e9e9" stroke-width="2" fill="none"/>
  <path d="M96 0 L96 34 L0 34" stroke="#33333f" stroke-width="2" fill="none"/>
  <text x="40" y="20" font-family="'Courier New',monospace" font-size="8" font-weight="bold" fill="#eaeaea" letter-spacing="0.3">POSTMAN</text>
</g>
</svg>
